<svg version="1.1" id="Layer_1" xmlns="http://www.w3.org/2000/svg" xmlns:xlink="http://www.w3.org/1999/xlink" x="0px" y="0px"
	 width="100%" height="100%" viewBox="0 0 861 595.28" enable-background="new 0 0 861 595.28" xml:space="preserve">
<rect y="-893" fill="#1A2E4D" width="862" height="596"/>
<rect y="-893" fill="#1A2E4D" width="862" height="596"/>
<rect y="-893" opacity="0.05" fill="none" width="862" height="596"/>
<g opacity="0.05">
	<defs>
		<rect id="SVGID_1_" x="-1" y="-893" opacity="0.05" width="862" height="596"/>
	</defs>
	<clipPath id="SVGID_2_">
		<use xlink:href="#SVGID_1_"  overflow="visible"/>
	</clipPath>
	<path clip-path="url(#SVGID_2_)" fill="#65C5E9" d="M917.432-674.637l-81.563,47.185l-0.097-0.164l-11.601,6.734l0.085,0.146
		l-34.218,19.795l-0.058-0.1l-11.601,6.731l0.051,0.085l-0.1,0.058l6.774,11.71l0.113-0.065l19.375,33.387l-34.187,19.831
		l-9.742-16.783l-6.729-11.605l-31.38-54.077l91.576-53.141l-0.723-1.24l-6.008-10.359l-4.892-8.429l52.592-30.427l16.1,27.833
		l11.71-6.774L866.81-722.14l80.303-46.456l-6.774-11.708l-80.302,46.456l-55.896-96.62l47.235-27.326l-6.773-11.708l-47.236,27.326
		l-0.208-0.361l-11.71,6.775l0.208,0.36l-73.144,42.313l-30.757-53.166l141.351-81.776l-6.773-11.708l-141.354,81.772
		l-19.542-33.779l-11.71,6.776l41.747,72.16l-55.131,31.894l-50.69-87.624l72.208-41.776l-6.714-11.708L573-880.251v-0.001
		l-11.771,6.776l-64.341,37.204l0.019,0.056l-0.796,0.455l41.474,71.697l-52.938,30.625l-43.756-75.635L429.18-802.3l43.755,75.633
		L400.41-684.71l6.776,11.71l72.524-41.958l31.477,54.41l-79.6,46.188l-28.884-49.775l-8.085,4.687l-3.516,2.04l-53.668,31.143
		l-7.091-12.229l-6.737-11.598l-14.204-24.035L358-702.476v0.001l11.966-6.776l-53.584-92.844l105.474-60.979l-6.745-11.71
		l-141.588,81.922l-30.259-52.315l143.222-82.853l-6.774-11.71l-143.215,82.854l-13.942-24.101l6.467-3.741l-6.776-11.71
		L80.189-814.252l-50.613-87.49l-11.711,6.774l97.326,168.235L5.127-663.057l6.773,11.707l70.051-40.525l10.479,18.062
		L0.853-620.675l0.718,1.242l6.013,10.357l19.328,33.312l-81.548,47.177l6.773,11.708l81.563-47.185l0.096,0.163l11.601-6.733
		l-0.084-0.146l34.217-19.795l0.058,0.1l11.601-6.731l-0.05-0.085l0.099-0.058l-6.775-11.71l-0.113,0.065L64.975-642.38
		l34.187-19.831l9.742,16.783l6.73,11.606l31.38,54.077l-91.577,53.141l0.724,1.24l6.007,10.359l4.891,8.429l-52.591,30.427
		l-16.1-27.832l-11.709,6.774l16.101,27.831l-80.302,46.456l6.774,11.708l80.302-46.456l55.895,96.62l-47.236,27.326l6.773,11.708
		l47.237-27.326l0.208,0.361l11.71-6.775l-0.208-0.359l73.144-42.313l30.757,53.166L46.462-263.484l6.773,11.708l141.354-81.772
		l19.542,33.779l11.71-6.776l-41.747-72.159l55.131-31.894l50.691,87.623l-72.208,41.776l6.774,11.708l72.208-41.773l0.002,0.002
		l11.71-6.775l64.31-37.204l-0.033-0.057l0.789-0.455l-41.478-71.696l52.936-30.625l43.754,75.635l11.711-6.775l-43.755-75.633
		l72.525-41.956l-6.776-11.71l-72.524,41.958l-31.476-54.41l79.6-46.188l28.884,49.775l8.085-4.687l3.516-2.04l53.668-31.144
		l7.091,12.229l6.737,11.599l13.919,24.035L511-489.04v-0.002l-11.682,6.776l53.727,92.844l-105.401,60.98l6.778,11.71
		l141.606-81.922l30.268,52.314L483.08-263.486l6.775,11.71l143.215-82.854l13.943,24.101l-6.467,3.74l6.775,11.71l142.057-82.184
		l50.613,87.489l11.711-6.773l-97.325-168.235l110.063-63.676l-6.773-11.707l-70.051,40.525l-10.479-18.062l91.578-53.139
		l-0.719-1.242l-6.013-10.357l-19.328-33.312l81.548-47.177L917.432-674.637z M72.739-602.277l-34.217,19.794l-19.34-33.325
		l34.192-19.836L72.739-602.277z M792.43-823.692l55.897,96.618l-52.606,30.432l-7.796-13.433l-6.737-11.604l-11.601,6.731
		l-43.927,25.488l6.737,11.606l43.923-25.49l19.476,33.563l-79.972,46.408l-44.366-76.453l91.577-53.139l-6.731-11.606
		l-20.434,11.856l-16.584-28.666L792.43-823.692z M673.08-670.302l-87.854,50.979l-29.813-51.383l87.849-50.98l9.859,16.99
		l6.733,11.605L673.08-670.302z M692.248-801.101l31.923,55.177l-59.448,34.495l-9.854-16.987l-6.738-11.606l-11.6,6.737
		l-49.049,28.462l-15.46-26.724L692.248-801.101z M514.556-830.881l53.388-30.886l50.692,87.624l-53.39,30.887L514.556-830.881z
		 M491.418-721.732l52.937-30.625l31.428,54.323l-52.897,30.696L491.418-721.732z M351.795-714.086l-48.868,28.356l-24.648-42.479
		l48.925-28.384L351.795-714.086z M304.801-795.32l15.684,27.112l-24.468,14.2l-15.705-27.146L304.801-795.32z M86.963-802.544
		l123.885-71.668l73.466,126.995l-12.767,7.41l-11.599,6.731l-15.439,8.959l-33.183-57.187l-0.106,0.065l-11.493,6.664
		l-45.873,26.625l-0.5-0.861l-26.451,15.303L86.963-802.544z M232.908-717.39l-50.867,29.521l-26.449-45.583l50.868-29.516
		L232.908-717.39z M110.766-668.947l-6.731-11.601l-10.472-18.043l49.974-28.911l0.451,0.781l26.45,45.585l-49.936,28.975
		L110.766-668.947z M77.139-367.823l-55.898-96.618l52.607-30.433l7.795,13.433l6.737,11.604l11.601-6.731l43.926-25.488
		l-6.737-11.606l-43.922,25.49l-19.476-33.563l79.972-46.408l44.366,76.452l-91.578,53.14l6.731,11.605l20.434-11.855l16.584,28.666
		L77.139-367.823z M196.488-521.214l87.854-50.979l29.813,51.383l-87.849,50.981l-9.859-16.99l-6.733-11.604L196.488-521.214z
		 M177.32-390.415l-31.922-55.177l59.448-34.495L214.7-463.1l6.739,11.606l11.599-6.737l49.048-28.463l15.461,26.725L177.32-390.415
		z M355.013-360.635l-53.388,30.887l-50.692-87.624l53.39-30.887L355.013-360.635z M378.15-469.783l-52.936,30.624l-31.427-54.323
		l52.897-30.695L378.15-469.783z M325.761-527.542l-29.818-51.384l-6.731-11.605l-11.602,6.732l-88.031,50.98L165-574.882v0.004
		l-6.557-11.603l-31.149-54.08l139.414-80.917l24.635,42.479l-42.479,24.648l6.726,11.601l42.474-24.648l13.947,24.035
		l-42.476,24.647l6.731,11.605l42.474-24.647l7.097,12.223l6.733,11.599l33.181,57.189L325.761-527.542z M377.353-557.478
		l-33.187-57.189l53.662-31.137l33.187,57.182L377.353-557.478z M471.741-545.712l-33.188-57.182l53.663-31.144l33.186,57.189
		L471.741-545.712z M557.562-548.153l42.475-24.646l-6.731-11.606l-42.473,24.648l-7.098-12.223l-6.732-11.6L503.82-640.77
		l39.987-23.205l29.817,51.384l6.731,11.605l11.603-6.732l88.246-50.98L705-616.634v-0.004l6.342,11.602l30.978,54.08
		l-139.437,80.917l-24.646-42.479l42.475-24.648l-6.729-11.601l-42.475,24.648L557.562-548.153z M687.527-503.646l26.449,45.583
		l-50.867,29.516l-26.449-45.578L687.527-503.646z M517.773-477.43l48.868-28.356l24.648,42.479l-48.926,28.384L517.773-477.43z
		 M564.768-396.195l-15.683-27.112l24.468-14.2l15.704,27.146L564.768-396.195z M782.605-388.972l-123.885,71.668l-73.466-126.995
		l12.767-7.41l11.599-6.731l15.439-8.959l33.183,57.188l0.106-0.065l11.493-6.664l45.873-26.625l0.5,0.861l26.451-15.303
		L782.605-388.972z M726.033-464.015l-0.451-0.78l-26.45-45.585l49.936-28.976l9.735,16.786l6.731,11.601l10.473,18.044
		L726.033-464.015z M850.387-575.709l-34.192,19.836l-19.364-33.366l34.217-19.794L850.387-575.709z"/>
</g>
<rect fill="#1A2E4D" width="862" height="596"/>
<rect fill="#1A2E4D" width="862" height="596"/>
<rect opacity="0.05" fill="none" width="862" height="596"/>
<g opacity="0.05">
	<defs>
		<rect id="SVGID_3_" opacity="0.05" width="862" height="596"/>
	</defs>
	<clipPath id="SVGID_4_">
		<use xlink:href="#SVGID_3_"  overflow="visible"/>
	</clipPath>
	<path clip-path="url(#SVGID_4_)" fill="#65C5E9" d="M1132.159,485.72l-49.723,28.765l-0.059-0.1l-7.072,4.105l0.052,0.088
		l-20.86,12.068l-0.035-0.061l-7.071,4.104l0.03,0.051l-0.061,0.035l4.13,7.139l0.069-0.039l11.812,20.354l-20.841,12.089
		l-5.939-10.231l-4.103-7.074l-19.13-32.967l55.827-32.396l-0.44-0.756l-3.662-6.315l-2.982-5.139l32.062-18.549l9.814,16.968
		l7.139-4.131l-9.815-16.966l48.954-28.321l-4.13-7.137l-48.954,28.32l-34.075-58.902l28.796-16.658l-4.129-7.138l-28.797,16.659
		l-0.127-0.221l-7.139,4.131l0.127,0.219l-44.59,25.795l-18.75-32.411l86.171-49.853l-4.13-7.138l-41.563,24.044l-55.305-95.599
		l67.098-38.818l-4.129-7.137l-42.705,24.705l-6.388-11.011l55.828-32.395l-0.438-0.757l-3.666-6.314l-11.783-20.308l49.714-28.76
		l-4.13-7.137l-49.723,28.765l-0.059-0.1l-7.072,4.105l0.052,0.089l-20.86,12.067l-0.035-0.061l-7.071,4.104l0.03,0.052
		l-0.061,0.035l4.13,7.139l0.069-0.04l11.812,20.354l-20.841,12.089l-5.939-10.231l-4.103-7.075l-19.13-32.967l55.827-32.396
		l-0.44-0.756l-3.662-6.315l-2.982-5.139l32.062-18.549l9.814,16.967l7.139-4.13l-9.815-16.966l48.954-28.321l-4.13-7.138
		l-48.954,28.32l-34.075-58.901l28.796-16.659l-4.129-7.138l-28.797,16.659l-0.127-0.22l-7.139,4.13l0.127,0.219l-44.59,25.795
		l-18.75-32.412l86.171-49.853l-4.13-7.138l-86.173,49.85L913.344-7.736l-7.139,4.131l25.45,43.99l-33.609,19.443L867.145,6.411
		l44.02-25.467l-4.093-7.138L863.088-0.729v-0.001l-7.176,4.131l-39.224,22.681l0.011,0.034l-0.485,0.278l25.283,43.708
		l-32.271,18.669l-26.675-46.109l-7.14,4.131L802.086,92.9l-44.213,25.578l4.131,7.139l44.212-25.579l19.189,33.169l-48.526,28.158
		l-17.608-30.344l-4.929,2.857l-2.144,1.244l-32.717,18.986l-4.322-7.456l-4.107-7.07l-8.659-14.652l29.626-17.281v0.001l7.295-4.13
		l-32.667-56.601l64.3-37.174l-4.111-7.139L680.52,52.546l-18.447-31.893l87.312-50.509l-4.13-7.139l-87.307,50.51l-8.499-14.692
		l3.942-2.28l-4.131-7.139l-86.602,50.101L531.804-13.83l-7.14,4.13l59.333,102.561l-56.129,32.472l-0.412-0.713l-49.723,28.765
		l-0.059-0.1l-7.072,4.105l0.052,0.089l-20.86,12.067l-0.035-0.061l-7.071,4.104l0.03,0.052l-0.061,0.035l4.13,7.139l0.069-0.04
		l11.812,20.354l-20.841,12.089l-5.939-10.231l-4.103-7.075l-19.13-32.967l55.827-32.396l-0.44-0.756l-3.662-6.315l-2.982-5.139
		l32.062-18.549l9.814,16.967l7.139-4.13l-9.815-16.966l48.954-28.321l-4.13-7.138l-48.954,28.32l-34.075-58.901l28.796-16.659
		l-4.129-7.138l-28.797,16.659l-0.127-0.22l-7.139,4.13l0.127,0.219l-44.59,25.795l-18.75-32.412l86.171-49.853l-4.13-7.138
		l-86.173,49.85L367.738-7.736L360.6-3.605l25.45,43.99L352.44,59.828L321.539,6.411l44.02-25.467l-4.093-7.138L317.482-0.729
		v-0.001l-7.176,4.131l-39.224,22.681l0.011,0.034l-0.485,0.278l25.283,43.708L263.62,88.771l-26.675-46.109l-7.14,4.131
		L256.48,92.9l-44.213,25.578l4.131,7.139l44.212-25.579l19.189,33.169l-48.526,28.158l-17.608-30.344l-4.929,2.857l-2.144,1.244
		l-32.717,18.986l-4.322-7.456l-4.107-7.07l-8.659-14.652l29.626-17.281v0.001l7.295-4.13l-32.667-56.601l64.3-37.174l-4.111-7.139
		l-86.315,49.941l-18.447-31.893l87.312-50.509l-4.13-7.139l-87.307,50.51l-8.499-14.692l3.942-2.28l-4.131-7.139L17.053,39.506
		L-13.802-13.83l-7.14,4.13L38.392,92.861l-67.099,38.818l4.13,7.137l42.704-24.706l6.388,11.011l-55.827,32.395l0.438,0.757
		l3.666,6.313l11.783,20.308l-49.715,28.76l4.13,7.138l49.724-28.765l0.058,0.099l7.072-4.105l-0.052-0.088l20.86-12.067
		l0.035,0.061l7.072-4.104l-0.031-0.052l0.062-0.035l-4.131-7.139l-0.069,0.04L7.777,144.284l20.842-12.089l5.938,10.231
		l4.103,7.076l19.131,32.966L1.963,214.864l0.441,0.756l3.662,6.315l2.981,5.138l-32.061,18.549l-9.815-16.967l-7.138,4.13
		l9.815,16.966l-48.954,28.321l4.129,7.138l48.955-28.321l34.074,58.902l-28.796,16.658l4.13,7.139l28.797-16.66l0.126,0.221
		l7.139-4.131l-0.127-0.219l44.591-25.795l18.75,32.411l-86.171,49.853l4.13,7.139l42.02-24.309l55.459,95.863l-67.099,38.818
		l4.13,7.137l42.704-24.705l6.388,11.01l-55.827,32.396l0.438,0.757l3.666,6.314l11.783,20.308l-49.715,28.76l4.13,7.138
		l49.724-28.765l0.058,0.099l7.072-4.104l-0.052-0.089l20.86-12.066l0.035,0.061l7.072-4.104l-0.031-0.053l0.062-0.035l-4.131-7.139
		l-0.069,0.04l-11.812-20.354l20.842-12.089l5.938,10.23l4.103,7.076l19.131,32.967l-55.828,32.396l0.441,0.756l3.662,6.315
		l2.981,5.139l-32.061,18.549l-9.815-16.967l-7.138,4.129l9.815,16.967l-48.954,28.32l4.129,7.139l48.955-28.321l34.074,58.901
		l-28.796,16.658l4.13,7.139l28.797-16.66l0.126,0.221l7.139-4.131l-0.127-0.219l44.591-25.795l18.75,32.412l-86.171,49.852
		l4.13,7.139l86.172-49.852l11.913,20.594l7.139-4.131l-25.45-43.99l33.609-19.443l30.902,53.418l-44.02,25.467l4.129,7.137
		l44.021-25.465h0.001l7.139-4.129l39.205-22.682l-0.021-0.033l0.48-0.279l-25.286-43.707l32.271-18.67l26.674,46.109l7.139-4.131
		l-26.674-46.107l44.213-25.577l-4.131-7.139l-44.212,25.579l-19.189-33.17l48.526-28.158l17.608,30.344l4.929-2.856l2.143-1.243
		l32.718-18.986l4.322,7.455l4.107,7.071l8.485,14.652l-29.8,17.28l-7.121,4.131l32.753,56.6l-64.255,37.174l4.132,7.139
		l86.327-49.94l18.452,31.892l-87.309,50.51l4.131,7.139l87.307-50.51l8.501,14.691l-3.942,2.279l4.13,7.139l86.602-50.1
		l30.855,53.336l7.139-4.131l-59.332-102.56l55.67-32.207l0.259,0.448l49.724-28.765l0.058,0.099l7.072-4.104l-0.052-0.089
		l20.86-12.066l0.035,0.061l7.072-4.104l-0.031-0.053l0.062-0.035l-4.131-7.139l-0.069,0.04l-11.812-20.354l20.842-12.089
		l5.938,10.23l4.103,7.076l19.131,32.967l-55.828,32.396l0.441,0.756l3.662,6.315l2.981,5.139l-32.061,18.549l-9.815-16.967
		l-7.138,4.129l9.815,16.967l-48.954,28.32l4.129,7.139l48.955-28.321l34.074,58.901l-28.796,16.658l4.13,7.139l28.797-16.66
		l0.126,0.221l7.139-4.131l-0.127-0.219l44.591-25.795l18.75,32.412l-86.171,49.852l4.13,7.139l86.172-49.852l11.913,20.594
		l7.139-4.131l-25.45-43.99l33.609-19.443l30.902,53.418l-44.02,25.467l4.129,7.137l44.021-25.465h0.001l7.139-4.129l39.205-22.682
		l-0.021-0.033l0.48-0.279l-25.286-43.707l32.271-18.67l26.674,46.109l7.139-4.131l-26.674-46.107l44.213-25.577l-4.131-7.139
		l-44.212,25.579l-19.189-33.17l48.526-28.158l17.608,30.344l4.929-2.856l2.143-1.243l32.718-18.986l4.322,7.455l4.107,7.071
		l8.485,14.652l-29.8,17.28l-7.121,4.131l32.753,56.6l-64.255,37.174l4.132,7.139l86.327-49.94l18.452,31.892l-87.309,50.51
		l4.131,7.139l87.307-50.51l8.501,14.691l-3.942,2.279l4.13,7.139l86.602-50.1l30.855,53.336l7.139-4.131l-59.332-102.56
		l67.098-38.818l-4.129-7.137l-42.705,24.705l-6.388-11.011l55.828-32.395l-0.438-0.758l-3.666-6.313l-11.783-20.308l49.714-28.76
		L1132.159,485.72z M999.54,176.68l20.859-12.067l11.791,20.315l-20.845,12.092L999.54,176.68z M12.511,168.732l-20.859,12.067
		l-11.79-20.315l20.845-12.092L12.511,168.732z M72.22,529.832L51.36,541.898l-11.79-20.314l20.845-12.093L72.22,529.832z
		 M1055.956,394.852l34.076,58.9l-32.07,18.553l-4.753-8.189l-4.106-7.074l-7.072,4.104l-26.779,15.539l4.107,7.076l26.776-15.54
		l11.873,20.461l-48.753,28.292l-27.047-46.607l55.828-32.395l-4.104-7.076l-12.457,7.229l-10.11-17.477L1055.956,394.852z
		 M923.882,471.456l-32.248,18.714l-19.183-33.161l32.271-18.669L923.882,471.456z M886.557,390.469l32.546-18.828l30.904,53.417
		l-32.548,18.829L886.557,390.469z M965.019,457.037l6.011,10.357l4.104,7.074l8.063,13.894l-53.559,31.078l-18.175-31.324
		L965.019,457.037z M1014.343,442.262l-36.24,21.028l-6.008-10.355l-4.107-7.075l-7.071,4.106l-29.901,17.352l-9.425-16.292
		l73.292-42.401L1014.343,442.262z M990.869,298.768l-75.523,43.691l-44.787-77.42l7.783-4.518l7.071-4.104l9.412-5.461
		l20.229,34.863l0.065-0.04l7.006-4.063l27.966-16.231l0.305,0.525l16.125-9.329L990.869,298.768z M701.7,420.693l-0.064,0.039
		l-7.007,4.063l-27.965,16.231l-0.306-0.524l-16.125,9.328l-24.348-42.086l75.523-43.69l44.787,77.419l-7.784,4.518l-7.07,4.104
		l-9.412,5.462L701.7,420.693z M714.857,459.656l-31.01,17.996l-16.124-27.788l31.01-17.993L714.857,459.656z M537.384,514.385
		l-7.072,4.105l0.052,0.088l-20.86,12.068l-0.035-0.061l-7.071,4.104l0.03,0.051l-0.061,0.035l4.13,7.139l0.069-0.039l11.812,20.354
		l-20.841,12.089l-5.939-10.231l-4.103-7.074l-19.13-32.967l55.827-32.396l-0.44-0.756l-3.662-6.315l-2.982-5.139l32.062-18.549
		l9.814,16.968l7.139-4.131l-9.815-16.966l48.954-28.321l-4.13-7.137l-48.954,28.32l-34.075-58.902l24.667-14.271l1.156,1.975
		l2.304,3.981l0.021-0.012l0.016,0.025l4.898-2.868l36.627-21.189l55.306,95.599l-55.671,32.207l-0.259-0.448l-49.723,28.765
		L537.384,514.385z M546.294,546.028l-20.845,12.093l-11.806-20.342l20.859-12.066L546.294,546.028z M215.042,401.832
		l-20.419,11.814l-18.078-31.254l68.564-39.732l0.085,0.146l86.327-49.941l17.966,31.052l-134.448,77.91L215.042,401.832z
		 M208.336,437.333l-9.574-16.549l14.929-8.636l9.562,16.527L208.336,437.333z M227.349,435.758l14.991,25.912l-29.791,17.287
		l-15.026-25.896L227.349,435.758z M317.819,269.179l9.574,16.548l-14.93,8.637l-9.561-16.528L317.819,269.179z M298.807,270.754
		l-14.991-25.913l29.791-17.287l15.026,25.896L298.807,270.754z M324.953,265.039l7.783-4.518l7.071-4.104l9.412-5.461
		l20.229,34.863l0.065-0.04l7.006-4.063l27.966-16.231l0.305,0.525l16.125-9.329l24.349,42.086l-75.523,43.691L324.953,265.039z
		 M356.291,246.856l31.011-17.997l16.124,27.789l-31.011,17.993L356.291,246.856z M428.055,252.551l56.127-32.472l0.413,0.713
		l49.724-28.765l0.058,0.099l7.072-4.105l-0.052-0.088l20.86-12.067l0.035,0.061l7.072-4.104l-0.031-0.052l0.062-0.035l-4.131-7.139
		l-0.069,0.04l-11.812-20.354l20.842-12.089l5.938,10.231l4.103,7.076l19.131,32.966l-55.828,32.396l0.441,0.756l3.662,6.315
		l2.981,5.138l-32.061,18.549l-9.815-16.967l-7.138,4.13l9.815,16.966l-48.954,28.321l4.129,7.138l48.955-28.321l34.074,58.902
		l-22.26,12.877l-3.527-6.022l-6.647,3.893l0.026,0.046l-37.738,21.831L428.055,252.551z M525.467,160.483l20.845-12.092
		l11.805,20.341l-20.859,12.067L525.467,160.483z M699.296,262.625l30.902,53.418l-32.547,18.829l-30.903-53.417L699.296,262.625z
		 M621.872,297.888l-19.461-33.637l36.241-21.029l6.007,10.356l4.108,7.076l7.07-4.107l29.901-17.352l9.426,16.292L621.872,297.888z
		 M692.873,235.056l32.247-18.713l19.183,33.161l-32.271,18.669L692.873,235.056z M651.735,249.475l-6.01-10.357l-4.105-7.075
		l-8.063-13.893l53.558-31.079l18.175,31.324L651.735,249.475z M634.547,236.147l-55.828,32.395l4.104,7.075l12.456-7.228
		l10.11,17.476l-44.59,25.795l-34.077-58.9l32.071-18.553l4.753,8.189l4.106,7.075l7.072-4.104l26.778-15.538l-4.106-7.076
		l-26.776,15.54l-11.873-20.461l48.752-28.292L634.547,236.147z M525.419,333.7l3.458,5.905l0.095-0.056l0.021,0.038l28.797-16.66
		l0.126,0.221l7.139-4.131l-0.127-0.219l44.591-25.795l18.75,32.411l-79.52,46.005l-3.49-5.96l-3.349,1.961l-27.939,16.163
		l-0.127-0.221l-7.139,4.131l0.127,0.219l-44.59,25.795l-18.75-32.411L525.419,333.7z M469.349,442.262l-36.24,21.028l-6.008-10.355
		l-4.107-7.075l-7.071,4.106l-29.901,17.352l-9.425-16.292l73.292-42.401L469.349,442.262z M372.465,443.887l-30.902-53.418
		l32.546-18.828l30.904,53.417L372.465,443.887z M378.888,471.456L346.64,490.17l-19.183-33.161l32.271-18.669L378.888,471.456z
		 M420.024,457.037l6.011,10.357l4.104,7.074l8.063,13.894l-53.559,31.078l-18.175-31.324L420.024,457.037z M437.214,470.365
		l55.828-32.395l-4.104-7.076l-12.457,7.229l-10.11-17.477l44.591-25.795l34.076,58.9l-32.07,18.553l-4.753-8.189l-4.106-7.074
		l-7.072,4.104l-26.779,15.539l4.107,7.076l26.776-15.54l11.873,20.461l-48.753,28.292L437.214,470.365z M772.343,435.758
		l14.991,25.912l-29.791,17.287l-15.026-25.896L772.343,435.758z M753.33,437.333l-9.574-16.549l14.929-8.636l9.562,16.527
		L753.33,437.333z M739.617,413.646l-18.447-31.893l69.052-39.945l0.578,0.998l86.327-49.941l18.452,31.892l-69.065,39.956
		l-0.581-1.009L739.617,413.646z M863.425,269.179l9.574,16.548l-14.93,8.637l-9.561-16.528L863.425,269.179z M844.412,270.754
		l-14.991-25.913l29.791-17.287l15.026,25.896L844.412,270.754z M901.896,246.856l31.011-17.997l16.124,27.789l-31.011,17.993
		L901.896,246.856z M976.358,217.324l4.104,7.072l6.384,11l-30.465,17.625l-0.275-0.476l-16.124-27.79l30.441-17.664
		L976.358,217.324z M996.858,33.751l34.076,58.901l-32.07,18.552l-4.753-8.189l-4.106-7.074l-7.072,4.104l-26.779,15.539
		l4.107,7.076l26.776-15.54l11.873,20.461l-48.753,28.292l-27.047-46.607l55.828-32.395l-4.104-7.076l-12.457,7.228l-10.11-17.476
		L996.858,33.751z M924.1,127.262l-53.559,31.078l-18.175-31.324l53.555-31.079l6.011,10.357l4.104,7.075L924.1,127.262z
		 M935.784,47.524l19.461,33.637l-36.24,21.029l-6.008-10.355l-4.107-7.076l-7.071,4.107l-29.901,17.352l-9.425-16.292
		L935.784,47.524z M827.459,29.369l32.546-18.829l30.904,53.417l-32.548,18.83L827.459,29.369z M813.354,95.909l32.271-18.669
		l19.159,33.117l-32.248,18.713L813.354,95.909z M845.292,131.12l18.177,31.325l4.104,7.075l7.072-4.104l54.019-31.079L944,159.979
		v-0.002l3.645,7.073l18.775,32.968l-85.059,49.329l-15.053-25.896l25.881-15.026l-4.11-7.072l-25.896,15.026l-8.506-14.652
		l25.894-15.025l-4.104-7.076l-25.892,15.026l-4.327-7.451l-4.104-7.071l-20.229-34.864L845.292,131.12z M813.841,149.369
		l20.23,34.864l-32.713,18.982l-20.232-34.86L813.841,149.369z M780.778,184.046l17.608,30.344l4.929-2.857l2.143-1.244
		l32.718-18.986l4.322,7.456l4.107,7.071l8.485,14.652l-29.8,17.281v-0.001l-7.121,4.131l32.753,56.6l-45.994,26.61l-0.577-0.997
		l-87.307,50.511l-8.499-14.693l3.942-2.279l-4.131-7.139l-86.602,50.101l-26.827-46.374l37.471-21.678l11.913,20.594l7.139-4.132
		l-25.45-43.989l33.609-19.444l30.902,53.417l-44.02,25.468l4.129,7.137l44.021-25.465h0.001l7.139-4.13l39.205-22.681l-0.021-0.034
		l0.48-0.278l-25.286-43.707l32.271-18.67l26.674,46.109l7.139-4.131l-26.674-46.108l44.213-25.577l-4.131-7.139l-44.212,25.579
		l-19.189-33.17L780.778,184.046z M756.299,142.197l20.231,34.859l-32.714,18.986l-20.231-34.864L756.299,142.197z M703.979,143.685
		l-25.893,15.025l4.104,7.075l25.894-15.026l4.326,7.451l4.105,7.071l20.228,34.864l-24.377,14.146l-18.178-31.325l-4.104-7.075
		l-7.073,4.104l-53.847,31.079L614,185.433v0.002l-3.816-7.073l-18.899-32.968l85.034-49.329l15.041,25.896l-25.885,15.026
		l4.105,7.072l25.896-15.026L703.979,143.685z M624.75,116.553l-16.124-27.789l31.01-17.994l16.124,27.786L624.75,116.553z
		 M728.236,100.57l-29.791,17.287l-15.026-25.896l29.826-17.303L728.236,100.57z M699.587,51.048l9.562,16.528l-14.916,8.657
		l-9.574-16.549L699.587,51.048z M566.788,46.644l75.523-43.69l44.787,77.419l-7.784,4.518l-7.07,4.104l-9.412,5.462l-20.229-34.863
		l-0.064,0.04l-7.007,4.063l-27.965,16.231l-0.306-0.525l-16.125,9.329L566.788,46.644z M601.276,92.392l0.275,0.476l16.124,27.79
		l-30.441,17.664l-5.936-10.233l-4.104-7.072l-6.383-11L601.276,92.392z M453.935,176.68l20.859-12.067l11.791,20.315
		l-20.845,12.092L453.935,176.68z M497.759,187.896l-0.438-0.757l-3.666-6.314l-11.783-20.308l38.744-22.414l0.412,0.713
		l42.704-24.706l6.388,11.011l-55.827,32.395l0.438,0.757l3.666,6.313l11.783,20.308l-38.744,22.414l-0.412-0.712l-42.705,24.705
		l-6.388-11.011L497.759,187.896z M430.753,217.324l4.104,7.072l6.384,11l-30.465,17.625l-0.275-0.476l-16.124-27.79l30.441-17.664
		L430.753,217.324z M451.253,33.751l34.076,58.901l-32.07,18.552l-4.753-8.189l-4.106-7.074l-7.072,4.104l-26.779,15.539
		l4.107,7.076l26.776-15.54l11.873,20.461l-48.753,28.292l-27.047-46.607l55.828-32.395l-4.104-7.076l-12.457,7.228l-10.11-17.476
		L451.253,33.751z M378.494,127.262l-53.559,31.078l-18.175-31.324l53.555-31.079l6.011,10.357l4.104,7.075L378.494,127.262z
		 M390.179,47.524l19.461,33.637l-36.24,21.029l-6.008-10.355l-4.107-7.076l-7.071,4.107l-29.901,17.352l-9.425-16.292
		L390.179,47.524z M281.854,29.369l32.546-18.829l30.904,53.417l-32.548,18.83L281.854,29.369z M267.748,95.909l32.271-18.669
		l19.159,33.117l-32.248,18.713L267.748,95.909z M299.687,131.12l18.177,31.325l4.104,7.075l7.072-4.104l53.821-31.079L398,159.979
		v-0.002l3.842,7.073l18.874,32.968l-85.01,49.329l-15.027-25.896l25.893-15.026l-4.104-7.072l-25.894,15.026l-8.503-14.652
		l25.894-15.025l-4.104-7.076l-25.892,15.026l-4.327-7.451l-4.104-7.071l-20.229-34.864L299.687,131.12z M268.235,149.369
		l20.23,34.864l-32.713,18.982l-20.232-34.86L268.235,149.369z M210.693,142.197l20.231,34.859l-32.714,18.986l-20.231-34.864
		L210.693,142.197z M182.631,100.57l-29.791,17.287l-15.026-25.896l29.826-17.303L182.631,100.57z M153.981,51.048l9.562,16.528
		l-14.916,8.657l-9.574-16.549L153.981,51.048z M21.183,46.644l75.523-43.69l44.787,77.419l-7.784,4.518l-7.07,4.104l-9.412,5.462
		L96.997,59.593l-0.064,0.04l-7.007,4.063L61.961,79.926l-0.306-0.525L45.53,88.73L21.183,46.644z M110.154,98.556l-31.01,17.997
		L63.021,88.764l31.01-17.994L110.154,98.556z M35.693,128.088l-4.104-7.072l-6.383-11l30.465-17.625l0.275,0.476l16.124,27.79
		l-30.441,17.664L35.693,128.088z M45.58,145.394l85.084-49.329l15.065,25.896l-25.873,15.026l4.112,7.072l25.898-15.026
		l8.505,14.652l-25.893,15.025l4.104,7.075l25.894-15.026l4.326,7.451l4.105,7.071l20.228,34.864l-24.377,14.146l-18.178-31.325
		l-4.104-7.075l-7.073,4.104l-54.044,31.079L68,185.433v0.002l-3.619-7.073L45.58,145.394z M147.268,235.056l32.247-18.713
		l19.183,33.161l-32.271,18.669L147.268,235.056z M184.593,316.043l-32.547,18.829l-30.903-53.417l32.548-18.83L184.593,316.043z
		 M106.13,249.475l-6.01-10.357l-4.105-7.075l-8.063-13.893l53.558-31.079l18.175,31.324L106.13,249.475z M15.193,311.66
		l-34.077-58.9l32.071-18.553l4.753,8.189l4.106,7.075l7.072-4.104l26.778-15.538l-4.106-7.076l-26.776,15.54l-11.873-20.461
		l48.752-28.292l27.048,46.607l-55.828,32.395l4.104,7.075l12.456-7.228l10.11,17.476L15.193,311.66z M56.806,264.251l36.241-21.029
		l6.007,10.356l4.108,7.076l7.07-4.107l29.901-17.352l9.426,16.292l-73.293,42.402L56.806,264.251z M49.781,353.967l37.013-21.412
		l11.913,20.594l7.139-4.132l-25.45-43.989l33.609-19.444l30.902,53.417l-44.02,25.468l4.129,7.137l44.021-25.465h0.001l7.139-4.13
		l39.205-22.681l-0.021-0.034l0.48-0.278l-25.286-43.707l32.271-18.67l26.674,46.109l7.139-4.131l-26.674-46.108l44.213-25.577
		l-4.131-7.139l-44.212,25.579l-19.189-33.17l48.526-28.158l17.608,30.344l4.929-2.857l2.143-1.244l32.718-18.986l4.322,7.456
		l4.107,7.071l8.485,14.652l-29.8,17.281v-0.001l-7.121,4.131l32.186,55.62l-132.789,76.949l-8.409-14.538l3.942-2.279l-4.131-7.139
		l-86.602,50.101L49.781,353.967z M80.892,407.744l75.523-43.69l44.787,77.419l-7.784,4.518l-7.07,4.104l-9.412,5.462
		l-20.229-34.862l-0.064,0.039l-7.007,4.063l-27.965,16.231l-0.306-0.524l-16.125,9.328L80.892,407.744z M169.863,459.656
		l-31.01,17.996l-16.124-27.788l31.01-17.993L169.863,459.656z M95.402,489.188l-4.104-7.072l-6.383-10.999l30.465-17.625
		l0.275,0.476l16.124,27.79l-30.441,17.664L95.402,489.188z M74.902,672.76l-34.077-58.9l32.071-18.553l4.753,8.189l4.106,7.074
		l7.072-4.104l26.778-15.538l-4.106-7.075l-26.776,15.539l-11.873-20.461l48.752-28.292l27.048,46.607l-55.828,32.396l4.104,7.074
		l12.456-7.227l10.11,17.475L74.902,672.76z M147.661,579.25l53.558-31.078l18.175,31.324l-53.555,31.079l-6.01-10.357l-4.105-7.075
		L147.661,579.25z M135.976,658.988l-19.461-33.637l36.241-21.029l6.007,10.355l4.108,7.076l7.07-4.107l29.901-17.352l9.426,16.291
		L135.976,658.988z M244.302,677.143l-32.547,18.83l-30.903-53.418l32.548-18.83L244.302,677.143z M258.406,610.604l-32.271,18.669
		l-19.159-33.116l32.247-18.713L258.406,610.604z M226.469,575.393l-18.178-31.325l-4.104-7.075l-7.073,4.104l-53.898,31.079
		L128,546.533v0.002l-3.765-7.073l-18.874-32.968l85.048-49.329l15.047,25.896l-25.881,15.026l4.106,7.072l25.896-15.026
		l8.504,14.652l-25.893,15.025l4.104,7.075l25.894-15.026l4.326,7.451l4.105,7.072l20.228,34.863L226.469,575.393z M257.92,557.143
		l-20.231-34.864l32.714-18.981l20.231,34.859L257.92,557.143z M290.982,522.465l-17.608-30.344l-4.929,2.857l-2.144,1.243
		l-32.717,18.985l-4.322-7.455l-4.107-7.07l-8.659-14.652l29.626-17.281v0.001l7.295-4.13l-32.196-55.786l63.932-37.047
		l68.95-39.891l8.501,14.692l-3.942,2.279l4.13,7.139l86.602-50.101l26.981,46.64l-37.014,21.412l-11.913-20.593l-7.139,4.131
		l25.45,43.99l-33.609,19.442l-30.901-53.417l44.02-25.468l-4.093-7.137l-43.983,25.465l-7.176,4.131l-39.224,22.68l0.011,0.034
		l-0.485,0.278l25.283,43.707l-32.271,18.67l-26.675-46.109l-7.14,4.131L316.189,454l-44.213,25.578l4.131,7.139l44.212-25.578
		l19.189,33.169L290.982,522.465z M315.462,564.315l-20.232-34.86l32.715-18.986l20.23,34.865L315.462,564.315z M367.78,562.827
		l25.894-15.025l-4.104-7.075l-25.892,15.025l-4.327-7.451l-4.104-7.07l-20.229-34.865l24.378-14.146l18.177,31.325l4.104,7.074
		l7.072-4.104l53.967-31.079L458,521.08v-0.003l3.696,7.073l18.802,32.968l-85.046,49.329l-15.046-25.896l25.884-15.025
		l-4.108-7.072l-25.896,15.026L367.78,562.827z M447.011,589.959l16.124,27.789l-31.011,17.993L416,607.956L447.011,589.959z
		 M343.524,605.941l29.791-17.286l15.026,25.896l-29.826,17.304L343.524,605.941z M372.173,655.465l-9.561-16.529l14.916-8.656
		l9.574,16.549L372.173,655.465z M504.973,659.868l-75.523,43.69l-44.787-77.42l7.783-4.518l7.071-4.104l9.412-5.461l20.229,34.863
		l0.065-0.041l7.006-4.063l27.966-16.23l0.305,0.525l16.125-9.33L504.973,659.868z M470.484,614.12l-0.275-0.476l-16.124-27.79
		l30.441-17.664l5.936,10.233l4.104,7.072l6.384,11L470.484,614.12z M617.214,529.832l-20.859,12.066l-11.79-20.314l20.845-12.093
		L617.214,529.832z M573.391,518.616l0.438,0.757l3.666,6.314l11.783,20.308l-38.286,22.148l-0.259-0.447l-42.705,24.705
		l-6.388-11.011l55.828-32.395l-0.438-0.758l-3.666-6.313l-11.783-20.308l38.286-22.148l0.259,0.447l42.704-24.705l6.388,11.01
		L573.391,518.616z M640.396,489.188l-4.104-7.072l-6.383-10.999l30.465-17.625l0.275,0.476l16.124,27.79l-30.441,17.664
		L640.396,489.188z M619.896,672.76l-34.077-58.9l32.071-18.553l4.753,8.189l4.106,7.074l7.072-4.104l26.778-15.538l-4.106-7.075
		l-26.776,15.539l-11.873-20.461l48.752-28.292l27.048,46.607l-55.828,32.396l4.104,7.074l12.456-7.227l10.11,17.475L619.896,672.76
		z M692.655,579.25l53.558-31.078l18.175,31.324l-53.555,31.079l-6.01-10.357l-4.105-7.075L692.655,579.25z M680.97,658.988
		l-19.461-33.637l36.241-21.029l6.007,10.355l4.108,7.076l7.07-4.107l29.901-17.352l9.426,16.291L680.97,658.988z M789.296,677.143
		l-32.547,18.83l-30.903-53.418l32.548-18.83L789.296,677.143z M803.4,610.604l-32.271,18.669l-19.159-33.116l32.247-18.713
		L803.4,610.604z M771.463,575.393l-18.178-31.325l-4.104-7.075l-7.073,4.104l-53.896,31.079L673,546.533v0.002l-3.768-7.073
		l-18.875-32.968l85.047-49.329l15.047,25.896l-25.882,15.026l4.106,7.072l25.896-15.026l8.504,14.652l-25.893,15.025l4.104,7.075
		l25.894-15.026l4.326,7.451l4.105,7.072l20.228,34.863L771.463,575.393z M802.914,557.143l-20.231-34.864l32.714-18.981
		l20.231,34.859L802.914,557.143z M835.977,522.465l-17.608-30.344l-4.929,2.857l-2.144,1.243l-32.717,18.985l-4.322-7.455
		l-4.107-7.07l-8.659-14.652l29.626-17.281v0.001l7.295-4.13l-32.667-56.602l46.066-26.633l0.591,1.021l87.307-50.511l8.501,14.692
		l-3.942,2.279l4.13,7.139l86.602-50.101l26.828,46.374l-37.472,21.678l-11.913-20.593l-7.139,4.131l25.45,43.99l-33.609,19.442
		l-30.901-53.417l44.02-25.468l-4.093-7.137l-43.983,25.465l-7.176,4.131l-39.224,22.68l0.011,0.034l-0.485,0.278l25.283,43.707
		l-32.271,18.67l-26.675-46.109l-7.14,4.131L861.184,454l-44.213,25.578l4.131,7.139l44.212-25.578l19.189,33.169L835.977,522.465z
		 M860.456,564.315l-20.232-34.86l32.715-18.986l20.23,34.865L860.456,564.315z M912.774,562.827l25.894-15.025l-4.104-7.075
		l-25.892,15.025l-4.327-7.451l-4.104-7.07l-20.229-34.865l24.378-14.146l18.177,31.325l4.104,7.074l7.072-4.104l53.97-31.079
		L1003,521.08v-0.003l3.693,7.073l18.801,32.968l-85.047,49.329L925.4,584.551l25.884-15.025l-4.108-7.072l-25.896,15.026
		L912.774,562.827z M992.005,589.959l16.124,27.789l-31.011,17.993l-16.124-27.785L992.005,589.959z M888.519,605.941l29.791-17.286
		l15.026,25.896l-29.826,17.304L888.519,605.941z M917.167,655.465l-9.561-16.529l14.916-8.656l9.574,16.549L917.167,655.465z
		 M1049.967,659.868l-75.523,43.69l-44.787-77.42l7.783-4.518l7.071-4.104l9.412-5.461l20.229,34.863l0.065-0.041l7.006-4.063
		l27.966-16.23l0.305,0.525l16.125-9.33L1049.967,659.868z M1015.479,614.12l-0.275-0.476l-16.124-27.79l30.441-17.664l5.936,10.233
		l4.104,7.072l6.384,11L1015.479,614.12z M1091.288,546.028l-20.845,12.093l-11.806-20.342l20.859-12.066L1091.288,546.028z"/>
</g>
</svg>
