<svg version="1.1" id="Layer_1" xmlns="http://www.w3.org/2000/svg" xmlns:xlink="http://www.w3.org/1999/xlink" x="0px" y="0px"
	 width="100%" height="100%" viewBox="0 0 861 595.28" enable-background="new 0 0 861 595.28" xml:space="preserve">
<rect fill="#1A2E4D" width="862" height="596"/>
<rect fill="#1A2E4D" width="862" height="596"/>
<rect opacity="0.05" fill="none" width="862" height="596"/>
<g opacity="0.05">
	<defs>
		<rect id="SVGID_1_" x="-1" opacity="0.05" width="862" height="596"/>
	</defs>
	<clipPath id="SVGID_2_">
		<use xlink:href="#SVGID_1_"  overflow="visible"/>
	</clipPath>
	<path clip-path="url(#SVGID_2_)" fill="#65C5E9" d="M917.432,218.363l-81.563,47.185l-0.097-0.164l-11.601,6.734l0.085,0.146
		l-34.218,19.795l-0.058-0.1l-11.601,6.731l0.051,0.085l-0.1,0.058l6.774,11.71l0.113-0.065l19.375,33.387l-34.187,19.831
		l-9.742-16.783l-6.729-11.605l-31.38-54.077l91.576-53.141l-0.723-1.24l-6.008-10.359l-4.892-8.429l52.592-30.427l16.1,27.833
		l11.71-6.774L866.81,170.86l80.303-46.456l-6.774-11.708l-80.302,46.456l-55.896-96.62l47.235-27.326l-6.773-11.708l-47.236,27.326
		l-0.208-0.361l-11.71,6.775l0.208,0.36l-73.144,42.313l-30.757-53.166l141.351-81.776l-6.773-11.708L674.979,35.033L655.438,1.254
		l-11.71,6.776l41.747,72.16l-55.131,31.894l-50.69-87.624l72.208-41.776l-6.714-11.708L573,12.749v-0.001l-11.771,6.776
		l-64.341,37.204l0.019,0.056l-0.796,0.455l41.474,71.697l-52.938,30.625l-43.756-75.635L429.18,90.7l43.755,75.633L400.41,208.29
		l6.776,11.71l72.524-41.958l31.477,54.41l-79.6,46.188l-28.884-49.775l-8.085,4.687l-3.516,2.04l-53.668,31.143l-7.091-12.229
		l-6.737-11.598l-14.204-24.035L358,190.524v0.001l11.966-6.776l-53.584-92.844l105.474-60.979l-6.745-11.71l-141.588,81.922
		l-30.259-52.315l143.222-82.853l-6.774-11.71L236.497,36.115l-13.942-24.101l6.467-3.741l-6.776-11.71L80.189,78.748L29.576-8.742
		L17.865-1.967l97.326,168.235L5.127,229.943l6.773,11.707l70.051-40.525l10.479,18.062L0.853,272.325l0.718,1.242l6.013,10.357
		l19.328,33.312l-81.548,47.177l6.773,11.708l81.563-47.185l0.096,0.163l11.601-6.733l-0.084-0.146l34.217-19.795l0.058,0.1
		l11.601-6.731l-0.05-0.085l0.099-0.058l-6.775-11.71l-0.113,0.065L64.975,250.62l34.187-19.831l9.742,16.783l6.73,11.606
		l31.38,54.077l-91.577,53.141l0.724,1.24l6.007,10.359l4.891,8.429l-52.591,30.427l-16.1-27.832l-11.709,6.774l16.101,27.831
		l-80.302,46.456l6.774,11.708l80.302-46.456l55.895,96.62l-47.236,27.326l6.773,11.708l47.237-27.326l0.208,0.361l11.71-6.775
		l-0.208-0.359l73.144-42.313l30.757,53.166L46.462,629.516l6.773,11.708l141.354-81.772l19.542,33.779l11.71-6.776l-41.747-72.159
		l55.131-31.894l50.691,87.623l-72.208,41.776l6.774,11.708l72.208-41.773l0.002,0.002l11.71-6.775l64.31-37.204l-0.033-0.057
		l0.789-0.455l-41.478-71.696l52.936-30.625l43.754,75.635l11.711-6.775l-43.755-75.633l72.525-41.956l-6.776-11.71l-72.524,41.958
		l-31.476-54.41l79.6-46.188l28.884,49.775l8.085-4.687l3.516-2.04l53.668-31.144l7.091,12.229l6.737,11.599l13.919,24.035
		L511,403.96v-0.002l-11.682,6.776l53.727,92.844l-105.401,60.98l6.778,11.71l141.606-81.922l30.268,52.314L483.08,629.514
		l6.775,11.71l143.215-82.854l13.943,24.101l-6.467,3.74l6.775,11.71l142.057-82.184l50.613,87.489l11.711-6.773l-97.325-168.235
		l110.063-63.676l-6.773-11.707l-70.051,40.525l-10.479-18.062l91.578-53.139l-0.719-1.242l-6.013-10.357l-19.328-33.312
		l81.548-47.177L917.432,218.363z M72.739,290.723l-34.217,19.794l-19.34-33.325l34.192-19.836L72.739,290.723z M792.43,69.308
		l55.897,96.618l-52.606,30.432l-7.796-13.433l-6.737-11.604l-11.601,6.731l-43.927,25.488l6.737,11.606l43.923-25.49l19.476,33.563
		l-79.972,46.408l-44.366-76.453l91.577-53.139l-6.731-11.606l-20.434,11.856l-16.584-28.666L792.43,69.308z M673.08,222.698
		l-87.854,50.979l-29.813-51.383l87.849-50.98l9.859,16.99l6.733,11.605L673.08,222.698z M692.248,91.899l31.923,55.177
		l-59.448,34.495l-9.854-16.987l-6.738-11.606l-11.6,6.737l-49.049,28.462l-15.46-26.724L692.248,91.899z M514.556,62.119
		l53.388-30.886l50.692,87.624l-53.39,30.887L514.556,62.119z M491.418,171.268l52.937-30.625l31.428,54.323l-52.897,30.696
		L491.418,171.268z M351.795,178.914l-48.868,28.356l-24.648-42.479l48.925-28.384L351.795,178.914z M304.801,97.68l15.684,27.112
		l-24.468,14.2l-15.705-27.146L304.801,97.68z M86.963,90.456l123.885-71.668l73.466,126.995l-12.767,7.41l-11.599,6.731
		l-15.439,8.959l-33.183-57.187l-0.106,0.065l-11.493,6.664l-45.873,26.625l-0.5-0.861l-26.451,15.303L86.963,90.456z
		 M232.908,175.61l-50.867,29.521l-26.449-45.583l50.868-29.516L232.908,175.61z M110.766,224.053l-6.731-11.601l-10.472-18.043
		l49.974-28.911l0.451,0.781l26.45,45.585l-49.936,28.975L110.766,224.053z M77.139,525.177l-55.898-96.618l52.607-30.433
		l7.795,13.433l6.737,11.604l11.601-6.731l43.926-25.488l-6.737-11.606l-43.922,25.49l-19.476-33.563l79.972-46.408l44.366,76.452
		l-91.578,53.14l6.731,11.605l20.434-11.855l16.584,28.666L77.139,525.177z M196.488,371.786l87.854-50.979l29.813,51.383
		l-87.849,50.981l-9.859-16.99l-6.733-11.604L196.488,371.786z M177.32,502.585l-31.922-55.177l59.448-34.495L214.7,429.9
		l6.739,11.606l11.599-6.737l49.048-28.463l15.461,26.725L177.32,502.585z M355.013,532.365l-53.388,30.887l-50.692-87.624
		l53.39-30.887L355.013,532.365z M378.15,423.217l-52.936,30.624l-31.427-54.323l52.897-30.695L378.15,423.217z M325.761,365.458
		l-29.818-51.384l-6.731-11.605l-11.602,6.732l-88.031,50.98L165,318.118v0.004l-6.557-11.603l-31.149-54.08l139.414-80.917
		l24.635,42.479l-42.479,24.648l6.726,11.601l42.474-24.648l13.947,24.035l-42.476,24.647l6.731,11.605l42.474-24.647l7.097,12.223
		l6.733,11.599l33.181,57.189L325.761,365.458z M377.353,335.522l-33.187-57.189l53.662-31.137l33.187,57.182L377.353,335.522z
		 M471.741,347.288l-33.188-57.182l53.663-31.144l33.186,57.189L471.741,347.288z M557.562,344.847l42.475-24.646l-6.731-11.606
		l-42.473,24.648l-7.098-12.223l-6.732-11.6L503.82,252.23l39.987-23.205l29.817,51.384l6.731,11.605l11.603-6.732l88.246-50.98
		L705,276.366v-0.004l6.342,11.602l30.978,54.08l-139.437,80.917l-24.646-42.479l42.475-24.648l-6.729-11.601l-42.475,24.648
		L557.562,344.847z M687.527,389.354l26.449,45.583l-50.867,29.516l-26.449-45.578L687.527,389.354z M517.773,415.57l48.868-28.356
		l24.648,42.479l-48.926,28.384L517.773,415.57z M564.768,496.805l-15.683-27.112l24.468-14.2l15.704,27.146L564.768,496.805z
		 M782.605,504.028l-123.885,71.668l-73.466-126.995l12.767-7.41l11.599-6.731l15.439-8.959l33.183,57.188l0.106-0.065l11.493-6.664
		l45.873-26.625l0.5,0.861l26.451-15.303L782.605,504.028z M726.033,428.985l-0.451-0.78l-26.45-45.585l49.936-28.976l9.735,16.786
		l6.731,11.601l10.473,18.044L726.033,428.985z M850.387,317.291l-34.192,19.836l-19.364-33.366l34.217-19.794L850.387,317.291z"/>
</g>
<rect x="1716" fill="#1A2E4D" width="862" height="596"/>
<rect x="1716" fill="#1A2E4D" width="862" height="596"/>
<rect x="1716" opacity="0.05" fill="none" width="862" height="596"/>
<g>
	<defs>
		<rect id="SVGID_3_" x="1716" width="862" height="596"/>
	</defs>
	<clipPath id="SVGID_4_">
		<use xlink:href="#SVGID_3_"  overflow="visible"/>
	</clipPath>
	<path clip-path="url(#SVGID_4_)" fill="#65C5E9" d="M2848.159,485.72l-49.723,28.765l-0.059-0.1l-7.072,4.105l0.052,0.088
		l-20.86,12.068l-0.035-0.061l-7.071,4.104l0.03,0.051l-0.061,0.035l4.13,7.139l0.069-0.039l11.812,20.354l-20.841,12.089
		l-5.939-10.231l-4.103-7.074l-19.13-32.967l55.827-32.396l-0.44-0.756l-3.662-6.315l-2.982-5.139l32.062-18.549l9.814,16.968
		l7.139-4.131l-9.815-16.966l48.954-28.321l-4.13-7.137l-48.954,28.32l-34.075-58.902l28.796-16.658l-4.129-7.138l-28.797,16.659
		l-0.127-0.221l-7.139,4.131l0.127,0.219l-44.59,25.795l-18.75-32.411l86.171-49.853l-4.13-7.138l-41.563,24.044l-55.305-95.599
		l67.098-38.818l-4.129-7.137l-42.705,24.705l-6.388-11.011l55.828-32.395l-0.438-0.757l-3.666-6.314l-11.783-20.308l49.714-28.76
		l-4.13-7.137l-49.723,28.765l-0.059-0.1l-7.072,4.105l0.052,0.089l-20.86,12.067l-0.035-0.061l-7.071,4.104l0.03,0.052
		l-0.061,0.035l4.13,7.139l0.069-0.04l11.812,20.354l-20.841,12.089l-5.939-10.231l-4.103-7.075l-19.13-32.967l55.827-32.396
		l-0.44-0.756l-3.662-6.315l-2.982-5.139l32.062-18.549l9.814,16.967l7.139-4.13l-9.815-16.966l48.954-28.321l-4.13-7.138
		l-48.954,28.32l-34.075-58.901l28.796-16.659l-4.129-7.138l-28.797,16.659l-0.127-0.22l-7.139,4.13l0.127,0.219l-44.59,25.795
		l-18.75-32.412l86.171-49.853l-4.13-7.138l-86.173,49.85l-11.913-20.592l-7.139,4.131l25.45,43.99l-33.609,19.443l-30.901-53.417
		l44.02-25.467l-4.093-7.138l-43.983,25.466v-0.001l-7.176,4.131l-39.224,22.681l0.011,0.034l-0.485,0.278l25.283,43.708
		l-32.271,18.669l-26.675-46.109l-7.14,4.131l26.675,46.107l-44.213,25.578l4.131,7.139l44.212-25.579l19.189,33.169l-48.526,28.158
		l-17.608-30.344l-4.929,2.857l-2.144,1.244l-32.717,18.986l-4.322-7.456l-4.107-7.07l-8.659-14.652l29.626-17.281v0.001l7.295-4.13
		l-32.667-56.601l64.3-37.174l-4.111-7.139l-86.315,49.941l-18.447-31.893l87.312-50.509l-4.13-7.139l-87.307,50.51l-8.499-14.692
		l3.942-2.28l-4.131-7.139l-86.602,50.101l-30.854-53.336l-7.14,4.13l59.333,102.561l-56.129,32.472l-0.412-0.713l-49.723,28.765
		l-0.059-0.1l-7.072,4.105l0.052,0.089l-20.86,12.067l-0.035-0.061l-7.071,4.104l0.03,0.052l-0.061,0.035l4.13,7.139l0.069-0.04
		l11.812,20.354l-20.841,12.089l-5.939-10.231l-4.103-7.075l-19.13-32.967l55.827-32.396l-0.44-0.756l-3.662-6.315l-2.982-5.139
		l32.062-18.549l9.814,16.967l7.139-4.13l-9.815-16.966l48.954-28.321l-4.13-7.138l-48.954,28.32l-34.075-58.901l28.796-16.659
		l-4.129-7.138l-28.797,16.659l-0.127-0.22l-7.139,4.13l0.127,0.219l-44.59,25.795l-18.75-32.412l86.171-49.853l-4.13-7.138
		l-86.173,49.85l-11.913-20.592l-7.139,4.131l25.45,43.99l-33.609,19.443l-30.901-53.417l44.02-25.467l-4.093-7.138l-43.983,25.466
		v-0.001l-7.176,4.131l-39.224,22.681l0.011,0.034l-0.485,0.278l25.283,43.708l-32.271,18.669l-26.675-46.109l-7.14,4.131
		L1972.48,92.9l-44.213,25.578l4.131,7.139l44.212-25.579l19.189,33.169l-48.526,28.158l-17.608-30.344l-4.929,2.857l-2.144,1.244
		l-32.717,18.986l-4.322-7.456l-4.107-7.07l-8.659-14.652l29.626-17.281v0.001l7.295-4.13l-32.667-56.601l64.3-37.174l-4.111-7.139
		l-86.315,49.941l-18.447-31.893l87.312-50.509l-4.13-7.139l-87.307,50.51l-8.499-14.692l3.942-2.28l-4.131-7.139l-86.602,50.101
		l-30.854-53.336l-7.14,4.13l59.333,102.561l-67.099,38.818l4.13,7.137l42.704-24.706l6.388,11.011l-55.827,32.395l0.438,0.757
		l3.666,6.313l11.783,20.308l-49.715,28.76l4.13,7.138l49.724-28.765l0.058,0.099l7.072-4.105l-0.052-0.088l20.86-12.067
		l0.035,0.061l7.072-4.104l-0.031-0.052l0.062-0.035l-4.131-7.139l-0.069,0.04l-11.812-20.354l20.842-12.089l5.938,10.231
		l4.103,7.076l19.131,32.966l-55.828,32.396l0.441,0.756l3.662,6.315l2.981,5.138l-32.061,18.549l-9.815-16.967l-7.138,4.13
		l9.815,16.966l-48.954,28.321l4.129,7.138l48.955-28.321l34.074,58.902l-28.796,16.658l4.13,7.139l28.797-16.66l0.126,0.221
		l7.139-4.131l-0.127-0.219l44.591-25.795l18.75,32.411l-86.171,49.853l4.13,7.139l42.02-24.309l55.459,95.863l-67.099,38.818
		l4.13,7.137l42.704-24.705l6.388,11.01l-55.827,32.396l0.438,0.757l3.666,6.314l11.783,20.308l-49.715,28.76l4.13,7.138
		l49.724-28.765l0.058,0.099l7.072-4.104l-0.052-0.089l20.86-12.066l0.035,0.061l7.072-4.104l-0.031-0.053l0.062-0.035l-4.131-7.139
		l-0.069,0.04l-11.812-20.354l20.842-12.089l5.938,10.23l4.103,7.076l19.131,32.967l-55.828,32.396l0.441,0.756l3.662,6.315
		l2.981,5.139l-32.061,18.549l-9.815-16.967l-7.138,4.129l9.815,16.967l-48.954,28.32l4.129,7.139l48.955-28.321l34.074,58.901
		l-28.796,16.658l4.13,7.139l28.797-16.66l0.126,0.221l7.139-4.131l-0.127-0.219l44.591-25.795l18.75,32.412l-86.171,49.852
		l4.13,7.139l86.172-49.852l11.913,20.594l7.139-4.131l-25.45-43.99l33.609-19.443l30.902,53.418l-44.02,25.467l4.129,7.137
		l44.021-25.465h0.001l7.139-4.129l39.205-22.682l-0.021-0.033l0.48-0.279l-25.286-43.707l32.271-18.67l26.674,46.109l7.139-4.131
		l-26.674-46.107l44.213-25.577l-4.131-7.139l-44.212,25.579l-19.189-33.17l48.526-28.158l17.608,30.344l4.929-2.856l2.143-1.243
		l32.718-18.986l4.322,7.455l4.107,7.071l8.485,14.652l-29.8,17.28l-7.121,4.131l32.753,56.6l-64.255,37.174l4.132,7.139
		l86.327-49.94l18.452,31.892l-87.309,50.51l4.131,7.139l87.307-50.51l8.501,14.691l-3.942,2.279l4.13,7.139l86.602-50.1
		l30.855,53.336l7.139-4.131l-59.332-102.56l55.67-32.207l0.259,0.448l49.724-28.765l0.058,0.099l7.072-4.104l-0.052-0.089
		l20.86-12.066l0.035,0.061l7.072-4.104l-0.031-0.053l0.062-0.035l-4.131-7.139l-0.069,0.04l-11.812-20.354l20.842-12.089
		l5.938,10.23l4.103,7.076l19.131,32.967l-55.828,32.396l0.441,0.756l3.662,6.315l2.981,5.139l-32.061,18.549l-9.815-16.967
		l-7.138,4.129l9.815,16.967l-48.954,28.32l4.129,7.139l48.955-28.321l34.074,58.901l-28.796,16.658l4.13,7.139l28.797-16.66
		l0.126,0.221l7.139-4.131l-0.127-0.219l44.591-25.795l18.75,32.412l-86.171,49.852l4.13,7.139l86.172-49.852l11.913,20.594
		l7.139-4.131l-25.45-43.99l33.609-19.443l30.902,53.418l-44.02,25.467l4.129,7.137l44.021-25.465h0.001l7.139-4.129l39.205-22.682
		l-0.021-0.033l0.48-0.279l-25.286-43.707l32.271-18.67l26.674,46.109l7.139-4.131l-26.674-46.107l44.213-25.577l-4.131-7.139
		l-44.212,25.579l-19.189-33.17l48.526-28.158l17.608,30.344l4.929-2.856l2.143-1.243l32.718-18.986l4.322,7.455l4.107,7.071
		l8.485,14.652l-29.8,17.28l-7.121,4.131l32.753,56.6l-64.255,37.174l4.132,7.139l86.327-49.94l18.452,31.892l-87.309,50.51
		l4.131,7.139l87.307-50.51l8.501,14.691l-3.942,2.279l4.13,7.139l86.602-50.1l30.855,53.336l7.139-4.131l-59.332-102.56
		l67.098-38.818l-4.129-7.137l-42.705,24.705l-6.388-11.011l55.828-32.395l-0.438-0.758l-3.666-6.313l-11.783-20.308l49.714-28.76
		L2848.159,485.72z M2715.54,176.68l20.859-12.067l11.791,20.315l-20.845,12.092L2715.54,176.68z M1728.511,168.732l-20.859,12.067
		l-11.79-20.315l20.845-12.092L1728.511,168.732z M1788.22,529.832l-20.859,12.066l-11.79-20.314l20.845-12.093L1788.22,529.832z
		 M2771.956,394.852l34.076,58.9l-32.07,18.553l-4.753-8.189l-4.106-7.074l-7.072,4.104l-26.779,15.539l4.107,7.076l26.776-15.54
		l11.873,20.461l-48.753,28.292l-27.047-46.607l55.828-32.395l-4.104-7.076l-12.457,7.229l-10.11-17.477L2771.956,394.852z
		 M2639.882,471.456l-32.248,18.714l-19.183-33.161l32.271-18.669L2639.882,471.456z M2602.557,390.469l32.546-18.828l30.904,53.417
		l-32.548,18.829L2602.557,390.469z M2681.019,457.037l6.011,10.357l4.104,7.074l8.063,13.894l-53.559,31.078l-18.175-31.324
		L2681.019,457.037z M2730.343,442.262l-36.24,21.028l-6.008-10.355l-4.107-7.075l-7.071,4.106l-29.901,17.352l-9.425-16.292
		l73.292-42.401L2730.343,442.262z M2706.869,298.768l-75.523,43.691l-44.787-77.42l7.783-4.518l7.071-4.104l9.412-5.461
		l20.229,34.863l0.065-0.04l7.006-4.063l27.966-16.231l0.305,0.525l16.125-9.329L2706.869,298.768z M2542.514,364.714l-0.581-1.009
		l-86.315,49.941l-18.447-31.893l69.052-39.945l0.578,0.998l86.327-49.941l18.452,31.892L2542.514,364.714z M2417.7,420.693
		l-0.064,0.039l-7.007,4.063l-27.965,16.231l-0.306-0.524l-16.125,9.328l-24.348-42.086l75.523-43.69l44.787,77.419l-7.784,4.518
		l-7.07,4.104l-9.412,5.462L2417.7,420.693z M2430.857,459.656l-31.01,17.996l-16.124-27.788l31.01-17.993L2430.857,459.656z
		 M2303.424,486.168l-0.259-0.448l-49.723,28.765l-0.059-0.1l-7.072,4.105l0.052,0.088l-20.86,12.068l-0.035-0.061l-7.071,4.104
		l0.03,0.051l-0.061,0.035l4.13,7.139l0.069-0.039l11.812,20.354l-20.841,12.089l-5.939-10.231l-4.103-7.074l-19.13-32.967
		l55.827-32.396l-0.44-0.756l-3.662-6.315l-2.982-5.139l32.062-18.549l9.814,16.968l7.139-4.131l-9.815-16.966l48.954-28.321
		l-4.13-7.137l-48.954,28.32l-34.075-58.902l24.678-14.276l3.449,5.962l41.562-24.044l55.306,95.599L2303.424,486.168z
		 M2262.294,546.028l-20.845,12.093l-11.806-20.342l20.859-12.066L2262.294,546.028z M1997.366,364.448l-0.428-0.743l-86.315,49.941
		l-18.447-31.893l68.594-39.681l0.425,0.733l86.327-49.941l18.452,31.892L1997.366,364.448z M1924.336,437.333l-9.574-16.549
		l14.929-8.636l9.562,16.527L1924.336,437.333z M1943.349,435.758l14.991,25.912l-29.791,17.287l-15.026-25.896L1943.349,435.758z
		 M2033.819,269.179l9.574,16.548l-14.93,8.637l-9.561-16.528L2033.819,269.179z M2014.807,270.754l-14.991-25.913l29.791-17.287
		l15.026,25.896L2014.807,270.754z M2040.953,265.039l7.783-4.518l7.071-4.104l9.412-5.461l20.229,34.863l0.065-0.04l7.006-4.063
		l27.966-16.231l0.305,0.525l16.125-9.329l24.349,42.086l-75.523,43.691L2040.953,265.039z M2072.291,246.856l31.011-17.997
		l16.124,27.789l-31.011,17.993L2072.291,246.856z M2144.055,252.551l56.127-32.472l0.413,0.713l49.724-28.765l0.058,0.099
		l7.072-4.105l-0.052-0.088l20.86-12.067l0.035,0.061l7.072-4.104l-0.031-0.052l0.062-0.035l-4.131-7.139l-0.069,0.04
		l-11.812-20.354l20.842-12.089l5.938,10.231l4.103,7.076l19.131,32.966l-55.828,32.396l0.441,0.756l3.662,6.315l2.981,5.138
		l-32.061,18.549l-9.815-16.967l-7.138,4.13l9.815,16.966l-48.954,28.321l4.129,7.138l48.955-28.321l34.074,58.902l-24.677,14.275
		l-3.449-5.96l-42.021,24.309L2144.055,252.551z M2241.467,160.483l20.845-12.092l11.805,20.341l-20.859,12.067L2241.467,160.483z
		 M2415.296,262.625l30.902,53.418l-32.547,18.829l-30.903-53.417L2415.296,262.625z M2337.872,297.888l-19.461-33.637
		l36.241-21.029l6.007,10.356l4.108,7.076l7.07-4.107l29.901-17.352l9.426,16.292L2337.872,297.888z M2408.873,235.056
		l32.247-18.713l19.183,33.161l-32.271,18.669L2408.873,235.056z M2367.735,249.475l-6.01-10.357l-4.105-7.075l-8.063-13.893
		l53.558-31.079l18.175,31.324L2367.735,249.475z M2350.547,236.147l-55.828,32.395l4.104,7.075l12.456-7.228l10.11,17.476
		l-44.59,25.795l-34.077-58.9l32.071-18.553l4.753,8.189l4.106,7.075l7.072-4.104l26.778-15.538l-4.106-7.076l-26.776,15.54
		l-11.873-20.461l48.752-28.292L2350.547,236.147z M2241.545,333.627l3.448,5.961l28.797-16.66l0.126,0.221l7.139-4.131
		l-0.127-0.219l44.591-25.795l18.75,32.411l-82.053,47.47l-3.448-5.96l-28.797,16.659l-0.127-0.221l-7.139,4.131l0.127,0.219
		l-44.59,25.795l-18.75-32.411L2241.545,333.627z M2185.349,442.262l-36.24,21.028l-6.008-10.355l-4.107-7.075l-7.071,4.106
		l-29.901,17.352l-9.425-16.292l73.292-42.401L2185.349,442.262z M2088.465,443.887l-30.902-53.418l32.546-18.828l30.904,53.417
		L2088.465,443.887z M2094.888,471.456l-32.248,18.714l-19.183-33.161l32.271-18.669L2094.888,471.456z M2136.024,457.037
		l6.011,10.357l4.104,7.074l8.063,13.894l-53.559,31.078l-18.175-31.324L2136.024,457.037z M2153.214,470.365l55.828-32.395
		l-4.104-7.076l-12.457,7.229l-10.11-17.477l44.591-25.795l34.076,58.9l-32.07,18.553l-4.753-8.189l-4.106-7.074l-7.072,4.104
		l-26.779,15.539l4.107,7.076l26.776-15.54l11.873,20.461l-48.753,28.292L2153.214,470.365z M2488.343,435.758l14.991,25.912
		l-29.791,17.287l-15.026-25.896L2488.343,435.758z M2469.33,437.333l-9.574-16.549l14.929-8.636l9.562,16.527L2469.33,437.333z
		 M2579.425,269.179l9.574,16.548l-14.93,8.637l-9.561-16.528L2579.425,269.179z M2560.412,270.754l-14.991-25.913l29.791-17.287
		l15.026,25.896L2560.412,270.754z M2617.896,246.856l31.011-17.997l16.124,27.789l-31.011,17.993L2617.896,246.856z
		 M2692.358,217.324l4.104,7.072l6.384,11l-30.465,17.625l-0.275-0.476l-16.124-27.79l30.441-17.664L2692.358,217.324z
		 M2712.858,33.751l34.076,58.901l-32.07,18.552l-4.753-8.189l-4.106-7.074l-7.072,4.104l-26.779,15.539l4.107,7.076l26.776-15.54
		l11.873,20.461l-48.753,28.292l-27.047-46.607l55.828-32.395l-4.104-7.076l-12.457,7.228l-10.11-17.476L2712.858,33.751z
		 M2640.1,127.262l-53.559,31.078l-18.175-31.324l53.555-31.079l6.011,10.357l4.104,7.075L2640.1,127.262z M2651.784,47.524
		l19.461,33.637l-36.24,21.029l-6.008-10.355l-4.107-7.076l-7.071,4.107l-29.901,17.352l-9.425-16.292L2651.784,47.524z
		 M2543.459,29.369l32.546-18.829l30.904,53.417l-32.548,18.83L2543.459,29.369z M2529.354,95.909l32.271-18.669l19.159,33.117
		l-32.248,18.713L2529.354,95.909z M2561.292,131.12l18.177,31.325l4.104,7.075l7.072-4.104l54.019-31.079L2660,159.979v-0.002
		l3.645,7.073l18.775,32.968l-85.059,49.329l-15.053-25.896l25.881-15.026l-4.11-7.072l-25.896,15.026l-8.506-14.652l25.894-15.025
		l-4.104-7.076l-25.892,15.026l-4.327-7.451l-4.104-7.071l-20.229-34.864L2561.292,131.12z M2529.841,149.369l20.23,34.864
		l-32.713,18.982l-20.232-34.86L2529.841,149.369z M2496.778,184.046l17.608,30.344l4.929-2.857l2.143-1.244l32.718-18.986
		l4.322,7.456l4.107,7.071l8.485,14.652l-29.8,17.281v-0.001l-7.121,4.131l32.753,56.6l-45.994,26.61l-0.577-0.997l-87.307,50.511
		l-8.499-14.693l3.942-2.279l-4.131-7.139l-86.602,50.101l-26.827-46.374l37.471-21.678l11.913,20.594l7.139-4.132l-25.45-43.989
		l33.609-19.444l30.902,53.417l-44.02,25.468l4.129,7.137l44.021-25.465h0.001l7.139-4.13l39.205-22.681l-0.021-0.034l0.48-0.278
		l-25.286-43.707l32.271-18.67l26.674,46.109l7.139-4.131l-26.674-46.108l44.213-25.577l-4.131-7.139l-44.212,25.579l-19.189-33.17
		L2496.778,184.046z M2472.299,142.197l20.231,34.859l-32.714,18.986l-20.231-34.864L2472.299,142.197z M2419.979,143.685
		l-25.893,15.025l4.104,7.075l25.894-15.026l4.326,7.451l4.105,7.071l20.228,34.864l-24.377,14.146l-18.178-31.325l-4.104-7.075
		l-7.073,4.104l-53.847,31.079L2330,185.433v0.002l-3.816-7.073l-18.899-32.968l85.034-49.329l15.041,25.896l-25.885,15.026
		l4.105,7.072l25.896-15.026L2419.979,143.685z M2340.75,116.553l-16.124-27.789l31.01-17.994l16.124,27.786L2340.75,116.553z
		 M2444.236,100.57l-29.791,17.287l-15.026-25.896l29.826-17.303L2444.236,100.57z M2415.587,51.048l9.562,16.528l-14.916,8.657
		l-9.574-16.549L2415.587,51.048z M2282.788,46.644l75.523-43.69l44.787,77.419l-7.784,4.518l-7.07,4.104l-9.412,5.462
		l-20.229-34.863l-0.064,0.04l-7.007,4.063l-27.965,16.231l-0.306-0.525l-16.125,9.329L2282.788,46.644z M2317.276,92.392
		l0.275,0.476l16.124,27.79l-30.441,17.664l-5.936-10.233l-4.104-7.072l-6.383-11L2317.276,92.392z M2169.935,176.68l20.859-12.067
		l11.791,20.315l-20.845,12.092L2169.935,176.68z M2213.759,187.896l-0.438-0.757l-3.666-6.314l-11.783-20.308l38.744-22.414
		l0.412,0.713l42.704-24.706l6.388,11.011l-55.827,32.395l0.438,0.757l3.666,6.313l11.783,20.308l-38.744,22.414l-0.412-0.712
		l-42.705,24.705l-6.388-11.011L2213.759,187.896z M2146.753,217.324l4.104,7.072l6.384,11l-30.465,17.625l-0.275-0.476
		l-16.124-27.79l30.441-17.664L2146.753,217.324z M2167.253,33.751l34.076,58.901l-32.07,18.552l-4.753-8.189l-4.106-7.074
		l-7.072,4.104l-26.779,15.539l4.107,7.076l26.776-15.54l11.873,20.461l-48.753,28.292l-27.047-46.607l55.828-32.395l-4.104-7.076
		l-12.457,7.228l-10.11-17.476L2167.253,33.751z M2094.494,127.262l-53.559,31.078l-18.175-31.324l53.555-31.079l6.011,10.357
		l4.104,7.075L2094.494,127.262z M2106.179,47.524l19.461,33.637l-36.24,21.029l-6.008-10.355l-4.107-7.076l-7.071,4.107
		l-29.901,17.352l-9.425-16.292L2106.179,47.524z M1997.854,29.369l32.546-18.829l30.904,53.417l-32.548,18.83L1997.854,29.369z
		 M1983.748,95.909l32.271-18.669l19.159,33.117l-32.248,18.713L1983.748,95.909z M2015.687,131.12l18.177,31.325l4.104,7.075
		l7.072-4.104l53.821-31.079L2114,159.979v-0.002l3.842,7.073l18.874,32.968l-85.01,49.329l-15.027-25.896l25.893-15.026
		l-4.104-7.072l-25.894,15.026l-8.503-14.652l25.894-15.025l-4.104-7.076l-25.892,15.026l-4.327-7.451l-4.104-7.071l-20.229-34.864
		L2015.687,131.12z M1984.235,149.369l20.23,34.864l-32.713,18.982l-20.232-34.86L1984.235,149.369z M1926.693,142.197
		l20.231,34.859l-32.714,18.986l-20.231-34.864L1926.693,142.197z M1898.631,100.57l-29.791,17.287l-15.026-25.896l29.826-17.303
		L1898.631,100.57z M1869.981,51.048l9.562,16.528l-14.916,8.657l-9.574-16.549L1869.981,51.048z M1737.183,46.644l75.523-43.69
		l44.787,77.419l-7.784,4.518l-7.07,4.104l-9.412,5.462l-20.229-34.863l-0.064,0.04l-7.007,4.063l-27.965,16.231l-0.306-0.525
		l-16.125,9.329L1737.183,46.644z M1826.154,98.556l-31.01,17.997l-16.124-27.789l31.01-17.994L1826.154,98.556z M1751.693,128.088
		l-4.104-7.072l-6.383-11l30.465-17.625l0.275,0.476l16.124,27.79l-30.441,17.664L1751.693,128.088z M1761.58,145.394l85.084-49.329
		l15.065,25.896l-25.873,15.026l4.112,7.072l25.898-15.026l8.505,14.652l-25.893,15.025l4.104,7.075l25.894-15.026l4.326,7.451
		l4.105,7.071l20.228,34.864l-24.377,14.146l-18.178-31.325l-4.104-7.075l-7.073,4.104l-54.044,31.079L1784,185.433v0.002
		l-3.619-7.073L1761.58,145.394z M1863.268,235.056l32.247-18.713l19.183,33.161l-32.271,18.669L1863.268,235.056z
		 M1900.593,316.043l-32.547,18.829l-30.903-53.417l32.548-18.83L1900.593,316.043z M1822.13,249.475l-6.01-10.357l-4.105-7.075
		l-8.063-13.893l53.558-31.079l18.175,31.324L1822.13,249.475z M1731.193,311.66l-34.077-58.9l32.071-18.553l4.753,8.189
		l4.106,7.075l7.072-4.104l26.778-15.538l-4.106-7.076l-26.776,15.54l-11.873-20.461l48.752-28.292l27.048,46.607l-55.828,32.395
		l4.104,7.075l12.456-7.228l10.11,17.476L1731.193,311.66z M1772.806,264.251l36.241-21.029l6.007,10.356l4.108,7.076l7.07-4.107
		l29.901-17.352l9.426,16.292l-73.293,42.402L1772.806,264.251z M1765.781,353.967l37.013-21.412l11.913,20.594l7.139-4.132
		l-25.45-43.989l33.609-19.444l30.902,53.417l-44.02,25.468l4.129,7.137l44.021-25.465h0.001l7.139-4.13l39.205-22.681l-0.021-0.034
		l0.48-0.278l-25.286-43.707l32.271-18.67l26.674,46.109l7.139-4.131l-26.674-46.108l44.213-25.577l-4.131-7.139l-44.212,25.579
		l-19.189-33.17l48.526-28.158l17.608,30.344l4.929-2.857l2.143-1.244l32.718-18.986l4.322,7.456l4.107,7.071l8.485,14.652
		l-29.8,17.281v-0.001l-7.121,4.131l32.753,56.6l-45.536,26.345l-0.424-0.732l-87.307,50.511l-8.499-14.693l3.942-2.279
		l-4.131-7.139l-86.602,50.101L1765.781,353.967z M1796.892,407.744l75.523-43.69l44.787,77.419l-7.784,4.518l-7.07,4.104
		l-9.412,5.462l-20.229-34.862l-0.064,0.039l-7.007,4.063l-27.965,16.231l-0.306-0.524l-16.125,9.328L1796.892,407.744z
		 M1885.863,459.656l-31.01,17.996l-16.124-27.788l31.01-17.993L1885.863,459.656z M1811.402,489.188l-4.104-7.072l-6.383-10.999
		l30.465-17.625l0.275,0.476l16.124,27.79l-30.441,17.664L1811.402,489.188z M1790.902,672.76l-34.077-58.9l32.071-18.553
		l4.753,8.189l4.106,7.074l7.072-4.104l26.778-15.538l-4.106-7.075l-26.776,15.539l-11.873-20.461l48.752-28.292l27.048,46.607
		l-55.828,32.396l4.104,7.074l12.456-7.227l10.11,17.475L1790.902,672.76z M1863.661,579.25l53.558-31.078l18.175,31.324
		l-53.555,31.079l-6.01-10.357l-4.105-7.075L1863.661,579.25z M1851.976,658.988l-19.461-33.637l36.241-21.029l6.007,10.355
		l4.108,7.076l7.07-4.107l29.901-17.352l9.426,16.291L1851.976,658.988z M1960.302,677.143l-32.547,18.83l-30.903-53.418
		l32.548-18.83L1960.302,677.143z M1974.406,610.604l-32.271,18.669l-19.159-33.116l32.247-18.713L1974.406,610.604z
		 M1942.469,575.393l-18.178-31.325l-4.104-7.075l-7.073,4.104l-53.898,31.079L1844,546.533v0.002l-3.765-7.073l-18.874-32.968
		l85.048-49.329l15.047,25.896l-25.881,15.026l4.106,7.072l25.896-15.026l8.504,14.652l-25.893,15.025l4.104,7.075l25.894-15.026
		l4.326,7.451l4.105,7.072l20.228,34.863L1942.469,575.393z M1973.92,557.143l-20.231-34.864l32.714-18.981l20.231,34.859
		L1973.92,557.143z M2006.982,522.465l-17.608-30.344l-4.929,2.857l-2.144,1.243l-32.717,18.985l-4.322-7.455l-4.107-7.07
		l-8.659-14.652l29.626-17.281v0.001l7.295-4.13l-32.667-56.602l45.608-26.367l0.438,0.756l87.307-50.511l8.501,14.692l-3.942,2.279
		l4.13,7.139l86.602-50.101l26.981,46.64l-37.014,21.412l-11.913-20.593l-7.139,4.131l25.45,43.99l-33.609,19.442l-30.901-53.417
		l44.02-25.468l-4.093-7.137l-43.983,25.465l-7.176,4.131l-39.224,22.68l0.011,0.034l-0.485,0.278l25.283,43.707l-32.271,18.67
		l-26.675-46.109l-7.14,4.131L2032.189,454l-44.213,25.578l4.131,7.139l44.212-25.578l19.189,33.169L2006.982,522.465z
		 M2031.462,564.315l-20.232-34.86l32.715-18.986l20.23,34.865L2031.462,564.315z M2083.78,562.827l25.894-15.025l-4.104-7.075
		l-25.892,15.025l-4.327-7.451l-4.104-7.07l-20.229-34.865l24.378-14.146l18.177,31.325l4.104,7.074l7.072-4.104l53.967-31.079
		L2174,521.08v-0.003l3.696,7.073l18.802,32.968l-85.046,49.329l-15.046-25.896l25.884-15.025l-4.108-7.072l-25.896,15.026
		L2083.78,562.827z M2163.011,589.959l16.124,27.789l-31.011,17.993L2132,607.956L2163.011,589.959z M2059.524,605.941
		l29.791-17.286l15.026,25.896l-29.826,17.304L2059.524,605.941z M2088.173,655.465l-9.561-16.529l14.916-8.656l9.574,16.549
		L2088.173,655.465z M2220.973,659.868l-75.523,43.69l-44.787-77.42l7.783-4.518l7.071-4.104l9.412-5.461l20.229,34.863l0.065-0.041
		l7.006-4.063l27.966-16.23l0.305,0.525l16.125-9.33L2220.973,659.868z M2186.484,614.12l-0.275-0.476l-16.124-27.79l30.441-17.664
		l5.936,10.233l4.104,7.072l6.384,11L2186.484,614.12z M2333.214,529.832l-20.859,12.066l-11.79-20.314l20.845-12.093
		L2333.214,529.832z M2289.391,518.616l0.438,0.757l3.666,6.314l11.783,20.308l-38.286,22.148l-0.259-0.447l-42.705,24.705
		l-6.388-11.011l55.828-32.395l-0.438-0.758l-3.666-6.313l-11.783-20.308l38.286-22.148l0.259,0.447l42.704-24.705l6.388,11.01
		L2289.391,518.616z M2356.396,489.188l-4.104-7.072l-6.383-10.999l30.465-17.625l0.275,0.476l16.124,27.79l-30.441,17.664
		L2356.396,489.188z M2335.896,672.76l-34.077-58.9l32.071-18.553l4.753,8.189l4.106,7.074l7.072-4.104l26.778-15.538l-4.106-7.075
		l-26.776,15.539l-11.873-20.461l48.752-28.292l27.048,46.607l-55.828,32.396l4.104,7.074l12.456-7.227l10.11,17.475
		L2335.896,672.76z M2408.655,579.25l53.558-31.078l18.175,31.324l-53.555,31.079l-6.01-10.357l-4.105-7.075L2408.655,579.25z
		 M2396.97,658.988l-19.461-33.637l36.241-21.029l6.007,10.355l4.108,7.076l7.07-4.107l29.901-17.352l9.426,16.291L2396.97,658.988z
		 M2505.296,677.143l-32.547,18.83l-30.903-53.418l32.548-18.83L2505.296,677.143z M2519.4,610.604l-32.271,18.669l-19.159-33.116
		l32.247-18.713L2519.4,610.604z M2487.463,575.393l-18.178-31.325l-4.104-7.075l-7.073,4.104l-53.896,31.079L2389,546.533v0.002
		l-3.768-7.073l-18.875-32.968l85.047-49.329l15.047,25.896l-25.882,15.026l4.106,7.072l25.896-15.026l8.504,14.652l-25.893,15.025
		l4.104,7.075l25.894-15.026l4.326,7.451l4.105,7.072l20.228,34.863L2487.463,575.393z M2518.914,557.143l-20.231-34.864
		l32.714-18.981l20.231,34.859L2518.914,557.143z M2551.977,522.465l-17.608-30.344l-4.929,2.857l-2.144,1.243l-32.717,18.985
		l-4.322-7.455l-4.107-7.07l-8.659-14.652l29.626-17.281v0.001l7.295-4.13l-32.667-56.602l46.066-26.633l0.591,1.021l87.307-50.511
		l8.501,14.692l-3.942,2.279l4.13,7.139l86.602-50.101l26.828,46.374l-37.472,21.678l-11.913-20.593l-7.139,4.131l25.45,43.99
		l-33.609,19.442l-30.901-53.417l44.02-25.468l-4.093-7.137l-43.983,25.465l-7.176,4.131l-39.224,22.68l0.011,0.034l-0.485,0.278
		l25.283,43.707l-32.271,18.67l-26.675-46.109l-7.14,4.131L2577.184,454l-44.213,25.578l4.131,7.139l44.212-25.578l19.189,33.169
		L2551.977,522.465z M2576.456,564.315l-20.232-34.86l32.715-18.986l20.23,34.865L2576.456,564.315z M2628.774,562.827
		l25.894-15.025l-4.104-7.075l-25.892,15.025l-4.327-7.451l-4.104-7.07l-20.229-34.865l24.378-14.146l18.177,31.325l4.104,7.074
		l7.072-4.104l53.97-31.079L2719,521.08v-0.003l3.693,7.073l18.801,32.968l-85.047,49.329l-15.047-25.896l25.884-15.025
		l-4.108-7.072l-25.896,15.026L2628.774,562.827z M2708.005,589.959l16.124,27.789l-31.011,17.993l-16.124-27.785L2708.005,589.959z
		 M2604.519,605.941l29.791-17.286l15.026,25.896l-29.826,17.304L2604.519,605.941z M2633.167,655.465l-9.561-16.529l14.916-8.656
		l9.574,16.549L2633.167,655.465z M2765.967,659.868l-75.523,43.69l-44.787-77.42l7.783-4.518l7.071-4.104l9.412-5.461
		l20.229,34.863l0.065-0.041l7.006-4.063l27.966-16.23l0.305,0.525l16.125-9.33L2765.967,659.868z M2731.479,614.12l-0.275-0.476
		l-16.124-27.79l30.441-17.664l5.936,10.233l4.104,7.072l6.384,11L2731.479,614.12z M2807.288,546.028l-20.845,12.093
		l-11.806-20.342l20.859-12.066L2807.288,546.028z"/>
</g>
</svg>
