<svg version="1.1" id="Layer_1" xmlns="http://www.w3.org/2000/svg" xmlns:xlink="http://www.w3.org/1999/xlink" x="0px" y="0px"
	 width="100%" height="100%" viewBox="0 0 599.336 595.28" enable-background="new 0 0 599.336 595.28"
	 xml:space="preserve">
<g>
	<rect x="-6.574" y="-7.367" fill="#492A58" width="610.919" height="610.918"/>
	<g>
		<defs>
			<rect id="SVGID_1_" x="-4.08" y="-7.367" width="609.795" height="609.807"/>
		</defs>
		<clipPath id="SVGID_2_">
			<use xlink:href="#SVGID_1_"  overflow="visible"/>
		</clipPath>
		<path clip-path="url(#SVGID_2_)" fill="#9266A7" d="M775.714,559.04l21.1-21.101L573.701,314.806l58.015-58.021l-17.986-18.013
			l-109.321,109.31l-88.723-88.723l-18.019,18.002l88.745,88.739L287.073,565.417l-26.364-26.365l-17.997-17.996l0,0l-44.362-44.361
			l136.305-136.338l18.007-17.997l-17.997-17.975l-88.734-88.746l-18.007,18.002l88.733,88.739l-59.159,59.148L99.312,223.343
			l104.174-104.168l17.998-18.002l67.687-67.671l158.187,158.186l17.998,18.003l17.997-18.013l84.57-84.562l81.47,81.474
			l21.1-21.116L438.947-64.082l-21.101,21.111L549.926,89.108l-84.571,84.571L307.167,15.504l41.644-41.639l-18.019-18.013
			L289.16-2.509l-18.009,18.013l-67.666,67.671L132.76,12.444L114.752-5.554L96.745,12.444L29.036,80.142L-278.67-227.57
			l-21.122,21.105l396.451,396.45l-15.343,15.36l-17.998,17.998l-59.17,59.148l-88.723-88.723l-17.998,18.003l88.724,88.738
			l18.007,17.998l83.908,83.907L-54.038,544.53l18.007,17.997l142.105-142.114l118.64,118.639L82.599,681.169l17.998,17.997
			l142.116-142.117l26.364,26.387l17.998,17.996l18.007-17.996l136.627-136.637l72.48,72.502L286.923,746.565l21.101,21.1
			L535.299,540.4l130.066,130.068l21.112-21.101l-223.67-223.67l89.781-89.772L775.714,559.04z M47.033,98.155l67.719-67.708
			l70.726,70.726l-67.698,67.708L47.033,98.155z M124.071,402.415L124.071,402.415l-17.997-17.996L22.156,300.51l59.16-59.165
			l158.187,158.181l-59.17,59.17L124.071,402.415z"/>
	</g>
	<rect x="-4.08" y="-7.367" opacity="0.3" fill="#14111A" width="608.426" height="610.918"/>
	<path opacity="0.6" fill="#241433" d="M178.085,387.864c-22.127-10.785-33.791-28.547-22.524-59.534
		c7.94-21.85,0.481-46.806-2.878-56.046c80.517,7.137,134.786,16.928,134.786,16.928c-34.764-11.449-70.33-19.816-104.184-25.948
		l0.663-0.155c-64.841-48.336-36.893-143.159-36.893-143.159C49.387,84.544-6.574,94.207-6.574,94.207v152.58v7.565v1.166v9.448
		v195.83v18.563v123.999h41.719c-21.945-57.959,2.46-79.777,23.829-87.984c24.781,8.592,51.616,5.704,81.479-1.166
		c34.593-7.96,23.914-21.206,15.248-27.658c-8.645-6.441,0.899-16.125,0.899-16.125c19.838-9.469,5.093-21.229,5.093-21.229
		c6.613-1.509,13.226-6.805,13.226-6.805c-21.368-14.776-21.25-23.84-21.25-23.84C180.385,413.437,200.212,398.671,178.085,387.864z
		"/>
	<path opacity="0.6" fill="#241433" d="M604.218,467.278l0.234-406.729c-47.636-5.97-129.682,16.382-164.308,71.652l-3.413-3.419
		c-3.52-3.52-9.661-3.097-13.729,0.953L251.036,301.708c-4.034,4.046-4.462,10.198-0.942,13.718l109.631,109.62
		c3.509,3.52,9.672,3.092,13.717-0.952l71.176-71.187l-1.252,27.648c0,0-11.171,7.587,0.738,17.923c0,0,8.816,2.289,11.77,2.546
		c12.946,1.092,4.847,39.45-5.82,53.489c-14.039,18.468-24.118,22.651-38.274,22.651c-4.28,0,0,2.472,0,2.472
		s15.312,7.65,29.339,8.25c0,0-26.782,10.721,5.104,20.864c0,0,19.773,6.548,7.02,25.027c-12.754,18.478,1.916,59.009,77.199,16.081
		c0,0,3.039-1.552,7.992-4.558c12.24,6.045,28.045,21.036,19.229,57.757h46.79l1.263-137.214L604.218,467.278z"/>
	<path fill="#CAB086" stroke="#585857" stroke-width="2" stroke-miterlimit="10" d="M68.925,510.292c0,0-69.956,0.277-40.52,93.259
		H-6.574V460.494l58.015,15.964L68.925,510.292z"/>
	<path fill="#9C9B9B" stroke="#585857" stroke-width="2" stroke-miterlimit="10" d="M534.646,544.488
		c0,0,40.285,4.857,28.118,59.063h41.816l1.134-131.265L534.646,544.488z"/>
	<path fill="#9C9B9B" stroke="#585857" stroke-width="2" stroke-miterlimit="10" d="M604.581,84.614
		c-50.932-6.837-145.946,25.081-159.632,103.376c-8.527,48.776,0.856,68.223,11.952,97.744c-8.239,3.691-7.383,4.687-7.383,4.687
		c-13.119,25.091,14.252,26.803,14.252,26.803l-3.136,73.486c0,0-9.982,7.255,0.653,17.142c0,0,7.896,2.183,10.528,2.438
		c11.557,1.05,4.322,37.728-5.199,51.168c-12.541,17.665-21.551,21.655-34.208,21.655c-3.819,0,0,2.376,0,2.376
		s13.685,7.318,26.226,7.887c0,0-23.946,10.261,4.558,19.955c0,0,17.677,6.269,6.271,23.944
		c-11.406,17.679,1.712,56.432,68.982,15.387c0,0,38.305-20.929,65.922-60.838L604.581,84.614z"/>
	<path fill="#F5F6F6" stroke="#585857" stroke-width="2" stroke-miterlimit="10" d="M531.607,349.141
		c0,26.44-21.442,47.882-47.892,47.882c-26.45,0-47.894-21.441-47.894-47.882c0-26.439,21.443-47.882,47.894-47.882
		C510.165,301.259,531.607,322.701,531.607,349.141z"/>
	<path fill="#9C9B9B" stroke="#585857" stroke-width="2" stroke-miterlimit="10" d="M458.635,493.376c0,0,23.186,0.202,44.854-4.74"
		/>
	<path fill="#9C9B9B" stroke="#585857" stroke-width="2" stroke-miterlimit="10" d="M461.288,407.852c0,0,6.848,2.867,28.13,4.387"
		/>
	<path fill="#9C9B9B" stroke="#585857" stroke-width="2" stroke-miterlimit="10" d="M449.519,290.42c0,0,24.139-21.09,53.97,0"/>
	<path fill="none" stroke="#585857" stroke-width="2" stroke-miterlimit="10" d="M527.049,393.043c0,0,45.774-32.506,4.367-82.668"
		/>
	<path fill="#585857" d="M472.447,351.698c0-4.152-2.685-7.511-6.003-7.511c-3.315,0-5.99,3.358-5.99,7.511
		c0,4.173,2.675,7.533,5.99,7.533C469.763,359.231,472.447,355.871,472.447,351.698z"/>
	<path fill="#3D3D3C" d="M-6.574,92.671c0,0,46.919-9.694,128.805,25.83c0,0-23.432,95.154,30.923,143.646l-16.852,4.869
		c0,0-75.487-12.487-142.875-12.487V92.671z"/>
	<path fill="#CAB086" stroke="#585857" stroke-width="2" stroke-miterlimit="10" d="M125.741,267.619
		c0,0,11.963,32.485,3.617,59.961c-9.448,31.095,0.342,48.921,18.896,59.748c18.543,10.839,1.904,25.659-20.48,30.794
		c0,0-0.107,9.096,17.816,23.903c0,0-5.554,5.329-11.096,6.849c0,0,12.369,11.792-4.259,21.293c0,0-8.004,9.716-0.749,16.179
		c7.244,6.462,16.221,19.772-12.797,27.756c-28.997,7.981-54.591,10.656-78.045-3.81C15.19,495.847-6.574,479.134-6.574,479.134
		V253.367C-6.574,253.367,51.634,254.469,125.741,267.619z"/>
	<path fill="none" stroke="#585857" stroke-width="2" stroke-miterlimit="10" d="M134.494,448.874c0,0-34.229-8.089-46.705,12.435"
		/>
	<path fill="none" stroke="#585857" stroke-width="2" stroke-miterlimit="10" d="M130.235,470.167c0,0-10.015,1.52-21.122,0"/>
	<path fill="#ECECEC" stroke="#585857" stroke-width="2" stroke-miterlimit="10" d="M72.712,340.356
		c0,0,24.877-17.569,28.227-11.491s0,28.482,0,28.482s-7.939,4.174-19.998-2.097C68.892,349.002,72.712,340.356,72.712,340.356z"/>
	<polygon fill="#3D3D3C" points="91.566,308.942 91.566,381.637 137.468,370.52 137.468,323.194 	"/>
	<rect x="89.458" y="308.942" fill="#868686" width="2.108" height="72.694"/>
	<path fill="#585857" d="M-6.574,245.77c0,0,128.805-3.804,246.525,42.564c0,0-112.605-24.326-246.525-24.326V245.77z"/>
	<path fill="#70706F" d="M142.743,251.146c0,0-57.566-22.015-149.317-18.591v-43.714c0,0,59.641-2.022,127.317,13.294
		C120.744,202.136,128.993,233.535,142.743,251.146z"/>
	<polygon fill="#3D3D3C" points="100.938,337.188 -6.574,339.95 -6.574,354.823 100.938,352.361 	"/>
	<g>
		<path fill="#9C9B9B" d="M374.159,418.122c0,5.137-3.52,9.311-7.843,9.311H231.455c-4.322,0-7.854-4.174-7.854-9.311v-218.33
			c0-5.147,3.532-9.32,7.854-9.32h134.861c4.324,0,7.843,4.173,7.843,9.32V418.122z"/>
		<rect x="235.222" y="200.916" fill="#3D3D3C" width="128.72" height="174.943"/>
		<path fill="#3D3D3C" d="M314.218,400.469c0-8.464-6.869-15.322-15.332-15.322c-8.475,0-15.344,6.858-15.344,15.322
			c0,8.474,6.87,15.344,15.344,15.344C307.35,415.813,314.218,408.942,314.218,400.469z"/>
		<g>
			<defs>
				<rect id="SVGID_3_" x="235.222" y="200.916" width="128.72" height="174.943"/>
			</defs>
			<clipPath id="SVGID_4_">
				<use xlink:href="#SVGID_3_"  overflow="visible"/>
			</clipPath>
			<path clip-path="url(#SVGID_4_)" fill="#65C5E9" d="M402.225,335.349l4.762-4.729l-50.236-50.225l13.064-13.081l-4.055-4.055
				l-24.609,24.604l-19.966-19.982l-4.055,4.077l19.977,19.972l-44.875,44.865l-5.928-5.939l-4.066-4.044l0,0l-9.972-9.993
				l30.676-30.688l4.056-4.044l-4.056-4.055l-19.977-19.971l-4.044,4.055l19.976,19.971l-13.32,13.312l-35.61-35.604l23.454-23.454
				l4.045-4.05l15.237-15.231l35.609,35.608l4.055,4.061l4.055-4.066l19.046-19.046l18.328,18.355l4.751-4.761l-52.13-52.12
				l-4.74,4.751l29.725,29.724l-19.036,19.046l-35.619-35.62l9.384-9.357l-4.055-4.056l-9.373,9.368l-4.055,4.044l-15.227,15.236
				l-15.921-15.921l-4.055-4.05l-4.056,4.05l-15.236,15.248l-69.281-69.271l-4.762,4.75l89.259,89.253l-3.457,3.456l-4.055,4.05
				l-13.311,13.322l-19.987-19.977l-4.044,4.061l19.966,19.965l4.065,4.045l18.885,18.896l-31.993,31.971l4.055,4.077l31.993-32.004
				l26.707,26.707L246.2,362.857l4.044,4.057l31.993-32.014l5.938,5.947l4.056,4.066l4.055-4.066l30.762-30.751l16.306,16.308
				l-51.166,51.166l4.771,4.75l51.156-51.165l29.275,29.296l4.75-4.772l-50.343-50.332L352,285.124L402.225,335.349z
				 M238.196,231.604l15.248-15.237l15.921,15.921l-15.248,15.236L238.196,231.604z M255.541,300.104L255.541,300.104l-4.055-4.055
				L232.6,277.163l13.311-13.326l35.609,35.624l-13.322,13.311L255.541,300.104z"/>
		</g>
	</g>
</g>
</svg>