<svg version="1.1" id="Layer_1" xmlns="http://www.w3.org/2000/svg" xmlns:xlink="http://www.w3.org/1999/xlink" x="0px" y="0px"
	 width="100%" height="100%" viewBox="0 0 221 357" enable-background="new 0 0 221 357" xml:space="preserve">
<path fill="#492A58" d="M202.902,16H21.098C19.848,16,18,15.641,18,16.894v283.628c0,1.253,1.848,3.479,3.098,3.479h181.805
	c1.25,0,2.098-2.226,2.098-3.479V16.894C205,15.641,204.152,16,202.902,16z"/>
<g>
	<path fill="#A2C63A" d="M75.563,141.179l8.883-5.154c0.21,0.396,0.439,0.8,0.688,1.212c0.25,0.412,0.496,0.819,0.74,1.221
		l-6.941,4.028l3.163,5.452c0.849-0.466,1.693-0.951,2.537-1.454c0.843-0.501,1.69-0.992,2.54-1.474l-0.877-1.513l-0.971,0.563
		c-0.232-0.4-0.466-0.798-0.701-1.195c-0.236-0.397-0.479-0.811-0.727-1.238l2.945-1.709l3.701,6.379l-8.996,5.221l-5.971-10.29
		C75.561,141.199,75.557,141.184,75.563,141.179z M81.517,143.046l1.883-1.093c0.227,0.391,0.46,0.792,0.7,1.206
		s0.483,0.823,0.729,1.229L82.91,145.5l-1.392-2.398C81.502,143.074,81.501,143.055,81.517,143.046z"/>
	<path fill="#A2C63A" d="M85.677,135.253l1.953-1.133l4.604,7.935c0.826-0.453,1.648-0.921,2.467-1.404
		c0.82-0.48,1.645-0.963,2.474-1.444l-2.766-4.766l1.952-1.133c0.705,1.18,1.405,2.372,2.1,3.577
		c0.693,1.204,1.389,2.407,2.086,3.608c-1.46,0.872-2.932,1.739-4.414,2.599c-1.482,0.86-2.964,1.708-4.446,2.543l-5.995-10.332
		C85.674,135.273,85.67,135.258,85.677,135.253z M92.573,131.251l1.906-1.106l1.416,2.439l-1.918,1.113l-1.391-2.396
		C92.57,131.271,92.565,131.256,92.573,131.251z"/>
	<path fill="#A2C63A" d="M95.645,129.392l8.734-5.068l6.07,10.461l-1.964,1.14l-4.654-8.021l-4.807,2.789
		c0.416,0.751,0.849,1.506,1.297,2.262c0.449,0.757,0.889,1.514,1.317,2.269l-1.964,1.14l-4.016-6.921
		C95.642,129.412,95.638,129.396,95.645,129.392z M100.337,137.371l1.906-1.106l1.416,2.44l-1.918,1.113l-1.391-2.397
		C100.333,137.393,100.329,137.376,100.337,137.371z"/>
	<path fill="#A2C63A" d="M105.618,123.986c1.46-0.833,2.911-1.676,4.355-2.527c1.444-0.851,2.892-1.684,4.341-2.5l1.408,2.426
		l-3.266,1.895c0.433,0.78,0.879,1.559,1.339,2.333c0.46,0.776,0.91,1.552,1.35,2.326l-1.964,1.14l-2.699-4.652l-3.46,2.008
		l-1.391-2.398C105.615,124.008,105.61,123.99,105.618,123.986z M113.592,129.68l1.884-1.094c0.247,0.392,0.487,0.796,0.72,1.213
		c0.232,0.419,0.469,0.826,0.708,1.221l-1.93,1.12c-0.231-0.399-0.462-0.8-0.689-1.201c-0.229-0.401-0.463-0.8-0.701-1.195
		C113.565,129.714,113.569,129.692,113.592,129.68z"/>
	<path fill="#A2C63A" d="M115.083,117.864l8.895-5.161l1.416,2.44l-6.919,4.015c0.131,0.261,0.278,0.528,0.442,0.802
		s0.325,0.547,0.482,0.817l3.414-1.98l1.416,2.439l-3.414,1.981l0.969,1.67c1.16-0.647,2.316-1.313,3.468-1.993
		s2.308-1.352,3.471-2.014l1.424,2.454l-8.631,5.009c-0.038,0.021-0.082,0.047-0.132,0.076c-0.049,0.028-0.099,0.045-0.147,0.048
		L115.083,117.864z M123.36,118.479l1.907-1.106c0.229,0.411,0.466,0.821,0.712,1.228s0.478,0.814,0.692,1.22
		c-0.325,0.177-0.646,0.363-0.964,0.56c-0.318,0.197-0.635,0.375-0.951,0.532l-1.375-2.369
		C123.366,118.515,123.358,118.492,123.36,118.479z"/>
	<path fill="#A2C63A" d="M125.22,112.268l8.849-5.134c0.343,0.678,0.678,1.375,1.005,2.087c0.328,0.714,0.661,1.424,1,2.13
		c0.071-0.017,0.146-0.051,0.224-0.102c0.077-0.052,0.149-0.097,0.219-0.136c0.325,0.561,0.638,1.096,0.937,1.602
		c0.299,0.507,0.604,1.027,0.913,1.561c-0.289,0.168-0.605,0.351-0.948,0.55c-0.342,0.198-0.674,0.396-0.996,0.596l-0.397-0.685
		c-0.847,0.466-1.691,0.947-2.535,1.442c-0.845,0.497-1.692,0.991-2.542,1.484l2.26,3.896c-0.326,0.178-0.66,0.365-1.001,0.563
		c-0.341,0.198-0.664,0.386-0.971,0.563l-6.012-10.361C125.206,112.296,125.205,112.276,125.22,112.268z M128.603,113.625
		l0.928,1.599l4.615-2.698c-0.145-0.284-0.281-0.567-0.409-0.85s-0.265-0.564-0.41-0.85l-4.737,2.749
		C128.587,113.59,128.592,113.606,128.603,113.625z M136.897,116.138l1.884-1.094c0.245,0.388,0.485,0.79,0.721,1.203
		s0.471,0.825,0.706,1.231l-1.918,1.112l-1.383-2.384C136.896,116.188,136.893,116.165,136.897,116.138z"/>
	<path fill="#A2C63A" d="M84.31,156.384l1.953-1.133l4.57,7.878c0.232-0.108,0.469-0.236,0.71-0.383
		c0.241-0.146,0.479-0.288,0.716-0.425l-1.633-2.812l1.964-1.14l1.632,2.812l1.438-0.834c-0.742-1.315-1.499-2.628-2.271-3.938
		c-0.771-1.311-1.537-2.631-2.298-3.96l1.964-1.14l5.996,10.332c-1.47,0.84-2.931,1.688-4.385,2.544
		c-1.454,0.856-2.914,1.697-4.381,2.523l-5.963-10.275C84.307,156.404,84.303,156.389,84.31,156.384z M88.792,156.321l1.895-1.1
		c0.245,0.388,0.486,0.79,0.721,1.203c0.235,0.413,0.471,0.823,0.707,1.23l-1.93,1.12l-1.383-2.384
		C88.79,156.372,88.787,156.349,88.792,156.321z"/>
	<path fill="#A2C63A" d="M103.107,145.305l6.071,10.461l-1.964,1.139l-4.654-8.02l-5.069,2.941c0.233,0.401,0.447,0.773,0.641,1.117
		c0.193,0.341,0.393,0.689,0.599,1.044c0.336-0.156,0.665-0.338,0.988-0.545s0.652-0.388,0.989-0.545l1.407,2.426l-1.94,1.126
		c0.348,0.6,0.678,1.174,0.992,1.724c0.313,0.55,0.636,1.109,0.967,1.68l-1.952,1.133l-6.071-10.461L103.107,145.305z
		 M101.35,152.506l1.896-1.1l1.416,2.439l-1.906,1.106l-1.392-2.397C101.347,152.526,101.343,152.511,101.35,152.506z"/>
	<path fill="#A2C63A" d="M104.321,144.58l5.994-3.478l1.416,2.441l-4.042,2.345c0.073,0.162,0.163,0.325,0.271,0.492
		s0.203,0.333,0.289,0.499c1.115-0.62,2.224-1.257,3.326-1.911c1.102-0.651,2.211-1.295,3.327-1.931l4.074,7.022
		c-1.411,0.845-2.832,1.676-4.261,2.491c-1.43,0.817-2.856,1.646-4.281,2.484l-1.416-2.44l6.588-3.822
		c-0.186-0.353-0.388-0.711-0.606-1.069c-0.218-0.358-0.431-0.724-0.633-1.092l-6.646,3.855l-3.387-5.837
		C104.317,144.602,104.313,144.585,104.321,144.58z M110.966,140.725l1.884-1.093c0.247,0.392,0.485,0.794,0.716,1.207
		c0.229,0.413,0.467,0.823,0.712,1.228l-1.918,1.113l-1.392-2.397C110.951,140.753,110.95,140.733,110.966,140.725z"/>
	<path fill="#A2C63A" d="M93.211,171.329l1.952-1.133l2.311,3.981c0.849-0.467,1.695-0.949,2.542-1.445
		c0.846-0.498,1.697-0.989,2.556-1.474c-0.094-0.162-0.185-0.322-0.271-0.481c-0.088-0.16-0.178-0.319-0.272-0.482
		c0.325-0.176,0.653-0.359,0.985-0.552c0.33-0.192,0.652-0.379,0.965-0.56l4.281,7.378l-1.965,1.14l-2.318-3.996l-5.069,2.941
		l2.319,3.996l-1.964,1.14l-6.037-10.403C93.208,171.351,93.203,171.333,93.211,171.329z M102.241,166.299l1.416,2.44l-1.906,1.106
		c-0.231-0.4-0.47-0.806-0.713-1.217c-0.244-0.412-0.482-0.817-0.715-1.217c0.281-0.164,0.523-0.304,0.725-0.421
		c0.202-0.117,0.412-0.238,0.629-0.364S102.082,166.392,102.241,166.299z"/>
	<path fill="#A2C63A" d="M103.219,165.273l8.894-5.161l1.416,2.44l-6.918,4.016c0.131,0.261,0.277,0.527,0.441,0.802
		c0.164,0.272,0.325,0.546,0.482,0.816l3.414-1.98l1.416,2.44l-3.414,1.98l0.969,1.67c1.161-0.646,2.316-1.313,3.469-1.992
		c1.15-0.682,2.308-1.353,3.471-2.015l1.424,2.454l-8.631,5.009c-0.039,0.022-0.082,0.048-0.132,0.076
		c-0.05,0.029-0.099,0.046-0.147,0.048L103.219,165.273z M111.496,165.888l1.906-1.106c0.229,0.412,0.466,0.821,0.713,1.228
		c0.245,0.407,0.477,0.814,0.692,1.22c-0.326,0.177-0.647,0.363-0.965,0.56c-0.318,0.199-0.635,0.375-0.951,0.532l-1.375-2.369
		C111.501,165.924,111.493,165.902,111.496,165.888z"/>
	<path fill="#A2C63A" d="M113.355,159.678l8.849-5.135c0.342,0.679,0.678,1.375,1.005,2.088s0.66,1.423,0.999,2.13
		c0.072-0.017,0.146-0.051,0.224-0.103c0.077-0.051,0.15-0.096,0.219-0.136c0.325,0.562,0.638,1.096,0.937,1.603
		c0.3,0.506,0.604,1.026,0.913,1.56c-0.289,0.168-0.604,0.352-0.947,0.55c-0.343,0.199-0.675,0.397-0.997,0.597l-0.397-0.686
		c-0.847,0.467-1.691,0.947-2.535,1.442c-0.845,0.498-1.691,0.991-2.542,1.484l2.261,3.896c-0.327,0.178-0.661,0.365-1.001,0.563
		c-0.342,0.197-0.665,0.385-0.971,0.563l-6.013-10.361C113.341,159.705,113.341,159.687,113.355,159.678z M116.737,161.034
		l0.928,1.599l4.615-2.697c-0.145-0.284-0.281-0.568-0.409-0.85s-0.265-0.565-0.409-0.851l-4.738,2.749
		C116.722,160.999,116.727,161.016,116.737,161.034z M125.032,163.547l1.885-1.093c0.244,0.388,0.485,0.789,0.721,1.202
		c0.234,0.414,0.471,0.825,0.706,1.231l-1.918,1.113l-1.384-2.384C125.031,163.599,125.028,163.574,125.032,163.547z"/>
	<path fill="#A2C63A" d="M123.358,153.587l8.895-5.161l1.416,2.44l-6.919,4.015c0.13,0.262,0.277,0.528,0.441,0.803
		c0.165,0.273,0.325,0.546,0.482,0.816l3.414-1.98l1.416,2.44l-3.414,1.98l0.97,1.67c1.16-0.647,2.315-1.313,3.467-1.992
		c1.152-0.682,2.309-1.353,3.471-2.015l1.425,2.454l-8.632,5.009c-0.037,0.022-0.081,0.048-0.131,0.076
		c-0.05,0.029-0.099,0.046-0.148,0.048L123.358,153.587z M131.636,154.201l1.906-1.106c0.229,0.412,0.466,0.821,0.713,1.228
		c0.246,0.407,0.477,0.814,0.691,1.22c-0.324,0.177-0.646,0.363-0.964,0.56c-0.318,0.199-0.635,0.375-0.95,0.532l-1.375-2.369
		C131.641,154.237,131.634,154.216,131.636,154.201z"/>
</g>
<g>
	<defs>
		<path id="SVGID_1_" d="M202.902,16H21.098C19.848,16,18,15.641,18,16.894v283.628c0,1.253,1.848,3.479,3.098,3.479h181.805
			c1.25,0,2.098-2.226,2.098-3.479V16.894C205,15.641,204.152,16,202.902,16z"/>
	</defs>
	<clipPath id="SVGID_2_">
		<use xlink:href="#SVGID_1_"  overflow="visible"/>
	</clipPath>
	<path clip-path="url(#SVGID_2_)" fill="#65C5E9" d="M239.743,206.408l-3.442-5.949l-36.846,21.316l-15.991-27.643l43.268-25.106
		l2.946-1.712l-23.697-40.837l-4.107,2.381l-1.786,1.036l-27.266,15.822l-3.603-6.213l-3.423-5.893L158.71,121.4l24.819-14.401V107
		l5.949-3.442L162.19,56.389l53.553-30.98l-3.442-5.949l-71.941,41.62l-15.377-26.578l72.761-42.093l-3.442-5.949l-72.76,42.094
		l-7.083-12.244l3.285-1.9l-3.442-5.949L42.13,50.212L16.416,5.764l-5.949,3.441l49.445,85.471l-55.917,32.35l3.441,5.948
		l35.589-20.589l5.323,9.176L1.823,148.558l0.365,0.631l3.055,5.262l9.819,16.924l-41.43,23.968l3.441,5.948l41.438-23.972
		l0.049,0.083l5.894-3.421l-0.043-0.074l17.384-10.057l0.029,0.051l5.894-3.42l-0.025-0.043l0.051-0.029l-3.442-5.949l-0.058,0.033
		L34.4,137.53l17.368-10.075l4.949,8.526l3.419,5.896l15.942,27.474L29.555,196.35l0.367,0.63l3.052,5.263l2.485,4.282L8.74,221.982
		l-8.18-14.14l-5.948,3.441l8.18,14.14l-40.797,23.602l3.441,5.948l40.797-23.602l28.397,49.087l-23.998,13.883l3.441,5.948
		l23.998-13.883l0.105,0.184l5.949-3.442l-0.105-0.183l37.16-21.497l15.626,27.011l-71.813,41.546l3.441,5.948l71.813-41.544
		l9.928,17.161l5.949-3.442l-21.209-36.66l28.009-16.203l25.753,44.517l-36.685,21.224l3.441,5.948l36.685-21.223l0.001,0.001
		l5.949-3.442l0,0l32.672-18.901l-0.017-0.028l0.4-0.231l-21.072-36.425l26.894-15.559l22.229,38.426l5.949-3.442l-22.229-38.425
		L239.743,206.408z M38.345,157.904l-17.384,10.057l-9.825-16.931l17.371-10.077L38.345,157.904z M203.504,135.791l16.86,29.051
		l-27.263,15.822l-16.86-29.055L203.504,135.791z M155.29,115.507l-12.522-21.581l24.856-14.42l12.493,21.595L155.29,115.507z
		 M156.242,59.83l7.968,13.774l-12.431,7.214l-7.979-13.791L156.242,59.83z M45.571,56.16l62.938-36.41l37.324,64.519l-6.486,3.765
		l-5.893,3.42l-7.844,4.552l-16.858-29.054l-0.054,0.033l-5.839,3.386L79.555,83.896l-0.254-0.438l-13.438,7.774L45.571,56.16z
		 M106.28,76.267l13.438,23.155L93.875,114.42L80.438,91.262L106.28,76.267z M57.664,124.033l-3.42-5.894l-5.32-9.167l25.389-14.688
		l0.229,0.396l13.438,23.159L62.61,132.562L57.664,124.033z M66.033,138.455l70.842-41.109l12.522,21.581l-21.578,12.522
		l3.419,5.894l21.579-12.522l7.086,12.211l-21.579,12.521l3.42,5.896l21.578-12.522l3.605,6.21l3.421,5.893l16.857,29.055
		l-20.315,11.789l-15.148-26.105l-3.42-5.896l-5.895,3.42l-44.832,25.9L85,171.822v0.002l-3.223-5.895L66.033,138.455z
		 M116.364,225.193l-5.009-8.632l-3.421-5.896l-6.72-11.578l44.634-25.899l15.146,26.104L116.364,225.193z M40.58,277.017
		l-28.398-49.086l26.727-15.461l3.961,6.824l3.423,5.896l5.894-3.42l22.316-12.949l-3.423-5.896l-22.314,12.95l-9.895-17.052
		l40.629-23.577l22.54,38.841l-46.525,26.997l3.42,5.896l10.381-6.023l8.426,14.563L40.58,277.017z M75.259,237.507l30.202-17.524
		l5.006,8.63l3.424,5.896l5.893-3.423l24.919-14.46l7.854,13.577l-61.08,35.336L75.259,237.507z M128.875,251.844l27.124-15.691
		l25.753,44.517l-27.123,15.691L128.875,251.844z M166.613,240.775l-15.967-27.599l26.874-15.595l15.986,27.635L166.613,240.775z"/>
</g>
<path fill="#1A1A1A" d="M218.865,0H4.006C2.529,0,0,0.334,0,1.887v351.544C0,354.984,2.529,357,4.006,357h214.859
	c1.477,0,2.135-2.016,2.135-3.568V1.887C221,0.334,220.342,0,218.865,0z M204,298.558c0,1.24-0.412,3.442-1.662,3.442H20.533
	c-1.25,0-3.533-2.202-3.533-3.442V17.884C17,16.644,19.283,17,20.533,17h181.805c1.25,0,1.662-0.356,1.662,0.884V298.558z"/>
<circle fill="#4E4E4E" cx="111.5" cy="328.001" r="13.501"/>
<linearGradient id="SVGID_3_" gradientUnits="userSpaceOnUse" x1="111.5" y1="329.374" x2="111.5" y2="314.502">
	<stop  offset="0" style="stop-color:#101F33;stop-opacity:0"/>
	<stop  offset="1" style="stop-color:#1A1A1A"/>
</linearGradient>
<path fill="url(#SVGID_3_)" d="M111.5,317.247c6.992,0,12.743,5.315,13.432,12.127c0.045-0.452,0.069-0.909,0.069-1.373
	c0-7.456-6.045-13.499-13.501-13.499c-7.455,0-13.501,6.043-13.501,13.499c0,0.464,0.024,0.921,0.069,1.373
	C98.757,322.563,104.508,317.247,111.5,317.247z"/>
<circle fill="#1A1A1A" cx="111.5" cy="328.001" r="7.896"/>
<linearGradient id="SVGID_4_" gradientUnits="userSpaceOnUse" x1="111.5" y1="328.8047" x2="111.5" y2="320.1064">
	<stop  offset="0" style="stop-color:#101F33;stop-opacity:0"/>
	<stop  offset="1" style="stop-color:#676767"/>
</linearGradient>
<path fill="url(#SVGID_4_)" d="M111.5,321.712c4.089,0,7.451,3.108,7.854,7.093c0.027-0.265,0.042-0.533,0.042-0.804
	c0-4.36-3.535-7.895-7.896-7.895c-4.359,0-7.896,3.534-7.896,7.895c0,0.271,0.015,0.539,0.04,0.804
	C104.047,324.82,107.411,321.712,111.5,321.712z"/>
<path fill="#111111" d="M131,8.25c0-1.243-1.008-2.25-2.25-2.25h-35.5C92.008,6,91,7.007,91,8.25v0.5C91,9.993,92.008,11,93.25,11
	h35.5c1.242,0,2.25-1.007,2.25-2.25V8.25z"/>
<path fill="#333333" d="M93.303,7h36.395c0.39,0,0.751,0.106,1.073,0.277C130.406,6.523,129.643,6,128.75,6h-35.5
	C92.008,6,91,7.007,91,8.25v0.5c0,0.095,0.017,0.185,0.027,0.276C91.166,7.887,92.126,7,93.303,7z"/>
<rect x="219" fill="#131313" width="2" height="357"/>
<rect x="202" y="17" fill="#333333" width="2" height="285"/>
<rect x="17" y="17" fill="#333333" width="2" height="285"/>
<rect fill="#131313" width="2" height="357"/>
<rect fill="#131313" width="221" height="2"/>
<rect x="17" y="300" fill="#333333" width="187" height="2"/>
<rect y="355" fill="#131313" width="221" height="2"/>
<linearGradient id="SVGID_5_" gradientUnits="userSpaceOnUse" x1="109.5" y1="268" x2="109.5" y2="299">
	<stop  offset="0" style="stop-color:#000000;stop-opacity:0"/>
	<stop  offset="1" style="stop-color:#000000"/>
</linearGradient>
<rect x="18" y="268" opacity="0.3" fill="url(#SVGID_5_)" width="183" height="31"/>
<linearGradient id="SVGID_6_" gradientUnits="userSpaceOnUse" x1="109.5" y1="52" x2="109.5" y2="21">
	<stop  offset="0" style="stop-color:#000000;stop-opacity:0"/>
	<stop  offset="1" style="stop-color:#000000"/>
</linearGradient>
<rect x="18" y="21" opacity="0.3" fill="url(#SVGID_6_)" width="183" height="31"/>
<linearGradient id="SVGID_7_" gradientUnits="userSpaceOnUse" x1="169" y1="160.5" x2="200" y2="160.5">
	<stop  offset="0" style="stop-color:#000000;stop-opacity:0"/>
	<stop  offset="1" style="stop-color:#000000"/>
</linearGradient>
<rect x="169" y="20" opacity="0.3" fill="url(#SVGID_7_)" width="31" height="281"/>
<linearGradient id="SVGID_8_" gradientUnits="userSpaceOnUse" x1="51" y1="160.5005" x2="20" y2="160.5005">
	<stop  offset="0" style="stop-color:#000000;stop-opacity:0"/>
	<stop  offset="1" style="stop-color:#000000"/>
</linearGradient>
<rect x="20" y="20" opacity="0.3" fill="url(#SVGID_8_)" width="31" height="281"/>
<rect x="17" y="17" fill="#333333" width="187" height="4"/>
<rect x="17" y="298" fill="#333333" width="187" height="4"/>
<rect x="200" y="17" fill="#333333" width="4" height="285"/>
<rect x="17" y="17" fill="#333333" width="4" height="285"/>
</svg>
